<svg width="207" height="196" viewBox="0 0 207 196" fill="none" xmlns="http://www.w3.org/2000/svg">
<g clip-path="url(#clip0_102_57)">
<g filter="url(#filter0_d_102_57)">
<mask id="path-1-outside-1_102_57" maskUnits="userSpaceOnUse" x="50.6136" y="13.9871" width="36.4027" height="41.7818" fill="black">
<rect fill="white" x="50.6136" y="13.9871" width="36.4027" height="41.7818"/>
<path d="M56.2297 47.6622C55.7444 47.4856 55.2694 47.2804 54.8049 47.0466C54.3403 46.8129 53.9588 46.5285 53.6604 46.1936C53.3439 45.8197 53.1441 45.3914 53.0612 44.9086C52.9783 44.4257 53.0563 43.856 53.2953 43.1994C53.6071 42.3429 54.1394 41.502 54.8924 40.6768C55.6273 39.8127 56.4763 38.9901 57.4395 38.209C58.3742 37.4176 59.3413 36.6703 60.3409 35.9672C61.3404 35.2641 62.2517 34.6258 63.0747 34.0524C64.2508 33.2195 65.3919 32.4385 66.4979 31.7095C67.6324 30.9908 68.6397 30.3551 69.5198 29.8025C70.4285 29.2603 71.1515 28.8283 71.6889 28.5066C72.2549 28.1953 72.5379 28.0396 72.5379 28.0396C72.5976 27.9644 72.7131 27.9579 72.8844 28.0203C73.1413 28.1138 73.223 28.289 73.1295 28.546C73.1087 28.6031 73.049 28.6783 72.9504 28.7717C72.9504 28.7717 72.6674 28.9274 72.1014 29.2387C71.564 29.5604 70.841 29.9924 69.9323 30.5346C69.0626 31.0587 68.0605 31.6801 66.926 32.3988C65.82 33.1278 64.6841 33.8945 63.5184 34.6988C62.7447 35.2255 61.8776 35.8314 60.917 36.5164C59.9564 37.2014 59.0139 37.9253 58.0896 38.6881C57.1653 39.451 56.3409 40.2502 55.6165 41.0858C54.8739 41.8825 54.3571 42.6805 54.0662 43.4799C53.8791 43.9938 53.8284 44.4442 53.9139 44.8309C54.0098 45.1892 54.1889 45.4968 54.451 45.7539C54.713 46.0109 55.0193 46.2355 55.3696 46.4277C55.7589 46.6018 56.1392 46.7563 56.5103 46.8914C57.7379 47.3382 59.1681 47.5839 60.8008 47.6285C62.4439 47.6446 64.1389 47.5179 65.8859 47.2485C67.6718 46.9609 69.4656 46.563 71.2671 46.0547C73.0973 45.5569 74.8236 44.989 76.4461 44.3509C76.5811 44.3354 76.6771 44.338 76.7342 44.3588C76.9911 44.4523 77.0729 44.6275 76.9793 44.8845C76.9378 44.9987 76.8586 45.083 76.7417 45.1375C75.0621 45.7548 73.3164 46.3318 71.5044 46.8686C69.721 47.4157 67.9363 47.8331 66.1504 48.1207C64.3645 48.4083 62.6214 48.5337 60.9212 48.4968C59.2496 48.4704 57.6858 48.1922 56.2297 47.6622ZM80.7425 24.8182C80.5347 25.3892 80.153 25.8161 79.5974 26.0988C79.0523 26.353 78.4942 26.3762 77.9232 26.1684C77.3522 25.9606 76.9253 25.5789 76.6426 25.0233C76.3987 24.4496 76.3807 23.8773 76.5886 23.3063C76.7964 22.7353 77.1729 22.3227 77.718 22.0684C78.2918 21.8246 78.8641 21.8066 79.4351 22.0144C80.0061 22.2223 80.4187 22.5988 80.6729 23.1439C80.9272 23.6891 80.9504 24.2472 80.7425 24.8182Z"/>
</mask>
<path d="M56.2297 47.6622C55.7444 47.4856 55.2694 47.2804 54.8049 47.0466C54.3403 46.8129 53.9588 46.5285 53.6604 46.1936C53.3439 45.8197 53.1441 45.3914 53.0612 44.9086C52.9783 44.4257 53.0563 43.856 53.2953 43.1994C53.6071 42.3429 54.1394 41.502 54.8924 40.6768C55.6273 39.8127 56.4763 38.9901 57.4395 38.209C58.3742 37.4176 59.3413 36.6703 60.3409 35.9672C61.3404 35.2641 62.2517 34.6258 63.0747 34.0524C64.2508 33.2195 65.3919 32.4385 66.4979 31.7095C67.6324 30.9908 68.6397 30.3551 69.5198 29.8025C70.4285 29.2603 71.1515 28.8283 71.6889 28.5066C72.2549 28.1953 72.5379 28.0396 72.5379 28.0396C72.5976 27.9644 72.7131 27.9579 72.8844 28.0203C73.1413 28.1138 73.223 28.289 73.1295 28.546C73.1087 28.6031 73.049 28.6783 72.9504 28.7717C72.9504 28.7717 72.6674 28.9274 72.1014 29.2387C71.564 29.5604 70.841 29.9924 69.9323 30.5346C69.0626 31.0587 68.0605 31.6801 66.926 32.3988C65.82 33.1278 64.6841 33.8945 63.5184 34.6988C62.7447 35.2255 61.8776 35.8314 60.917 36.5164C59.9564 37.2014 59.0139 37.9253 58.0896 38.6881C57.1653 39.451 56.3409 40.2502 55.6165 41.0858C54.8739 41.8825 54.3571 42.6805 54.0662 43.4799C53.8791 43.9938 53.8284 44.4442 53.9139 44.8309C54.0098 45.1892 54.1889 45.4968 54.451 45.7539C54.713 46.0109 55.0193 46.2355 55.3696 46.4277C55.7589 46.6018 56.1392 46.7563 56.5103 46.8914C57.7379 47.3382 59.1681 47.5839 60.8008 47.6285C62.4439 47.6446 64.1389 47.5179 65.8859 47.2485C67.6718 46.9609 69.4656 46.563 71.2671 46.0547C73.0973 45.5569 74.8236 44.989 76.4461 44.3509C76.5811 44.3354 76.6771 44.338 76.7342 44.3588C76.9911 44.4523 77.0729 44.6275 76.9793 44.8845C76.9378 44.9987 76.8586 45.083 76.7417 45.1375C75.0621 45.7548 73.3164 46.3318 71.5044 46.8686C69.721 47.4157 67.9363 47.8331 66.1504 48.1207C64.3645 48.4083 62.6214 48.5337 60.9212 48.4968C59.2496 48.4704 57.6858 48.1922 56.2297 47.6622ZM80.7425 24.8182C80.5347 25.3892 80.153 25.8161 79.5974 26.0988C79.0523 26.353 78.4942 26.3762 77.9232 26.1684C77.3522 25.9606 76.9253 25.5789 76.6426 25.0233C76.3987 24.4496 76.3807 23.8773 76.5886 23.3063C76.7964 22.7353 77.1729 22.3227 77.718 22.0684C78.2918 21.8246 78.8641 21.8066 79.4351 22.0144C80.0061 22.2223 80.4187 22.5988 80.6729 23.1439C80.9272 23.6891 80.9504 24.2472 80.7425 24.8182Z" fill="#622081"/>
<path d="M54.8049 47.0466L54.3554 47.9399L54.3554 47.9399L54.8049 47.0466ZM53.6604 46.1936L52.8973 46.8398L52.9054 46.8494L52.9138 46.8588L53.6604 46.1936ZM53.0612 44.9086L54.0468 44.7393L54.0468 44.7393L53.0612 44.9086ZM54.8924 40.6768L55.6311 41.3509L55.6429 41.3379L55.6542 41.3246L54.8924 40.6768ZM57.4395 38.209L58.0693 38.9858L58.0776 38.9791L58.0857 38.9722L57.4395 38.209ZM63.0747 34.0524L63.6464 34.8729L63.6527 34.8685L63.0747 34.0524ZM66.4979 31.7095L65.9627 30.8647L65.9551 30.8696L65.9475 30.8746L66.4979 31.7095ZM69.5198 29.8025L69.0074 28.9438L68.9977 28.9496L68.9881 28.9556L69.5198 29.8025ZM71.6889 28.5066L71.207 27.6304L71.191 27.6392L71.1753 27.6486L71.6889 28.5066ZM72.5379 28.0396L73.0198 28.9158L73.1961 28.8188L73.3212 28.6612L72.5379 28.0396ZM72.9504 28.7717L73.4323 29.6479L73.5447 29.5861L73.6379 29.4979L72.9504 28.7717ZM72.1014 29.2387L71.6195 28.3625L71.6035 28.3713L71.5878 28.3807L72.1014 29.2387ZM69.9323 30.5346L69.4199 29.6759L69.4162 29.6781L69.9323 30.5346ZM66.926 32.3988L66.3908 31.554L66.3832 31.5588L66.3756 31.5638L66.926 32.3988ZM63.5184 34.6988L64.0812 35.5255L64.0863 35.5219L63.5184 34.6988ZM60.917 36.5164L60.3364 35.7022L60.3364 35.7022L60.917 36.5164ZM58.0896 38.6881L57.4531 37.9169L57.4531 37.9169L58.0896 38.6881ZM55.6165 41.0858L56.348 41.7677L56.3603 41.7545L56.3721 41.7409L55.6165 41.0858ZM53.9139 44.8309L52.9375 45.0469L52.9423 45.0684L52.948 45.0896L53.9139 44.8309ZM54.451 45.7539L53.7507 46.4678L53.7507 46.4678L54.451 45.7539ZM55.3696 46.4277L54.8887 47.3045L54.9244 47.3241L54.9615 47.3407L55.3696 46.4277ZM60.8008 47.6285L60.7735 48.6282L60.7822 48.6284L60.791 48.6285L60.8008 47.6285ZM65.8859 47.2485L66.0383 48.2368L66.0449 48.2358L65.8859 47.2485ZM71.2671 46.0547L71.0046 45.0898L70.9956 45.0923L71.2671 46.0547ZM76.4461 44.3509L76.3317 43.3574L76.2018 43.3724L76.0801 43.4203L76.4461 44.3509ZM76.7417 45.1375L77.0867 46.0761L77.1262 46.0616L77.1644 46.0438L76.7417 45.1375ZM71.5044 46.8686L71.2204 45.9097L71.2111 45.9125L71.5044 46.8686ZM66.1504 48.1207L65.9914 47.1334L66.1504 48.1207ZM60.9212 48.4968L60.9429 47.4971L60.9371 47.497L60.9212 48.4968ZM79.5974 26.0988L80.0201 27.0051L80.0357 26.9978L80.051 26.99L79.5974 26.0988ZM76.6426 25.0233L75.7222 25.4145L75.7357 25.4462L75.7513 25.4769L76.6426 25.0233ZM77.718 22.0684L77.3269 21.1481L77.311 21.1548L77.2954 21.1621L77.718 22.0684ZM80.6729 23.1439L79.7666 23.5665L79.7666 23.5666L80.6729 23.1439ZM56.5718 46.7225C56.1234 46.5593 55.6843 46.3697 55.2544 46.1533L54.3554 47.9399C54.8546 48.1911 55.3654 48.4118 55.8877 48.6019L56.5718 46.7225ZM55.2544 46.1533C54.8846 45.9673 54.6094 45.7555 54.4071 45.5284L52.9138 46.8588C53.3082 47.3016 53.796 47.6585 54.3554 47.9399L55.2544 46.1533ZM54.4236 45.5474C54.2224 45.3098 54.0995 45.0461 54.0468 44.7393L52.0756 45.0778C52.1888 45.7366 52.4653 46.3297 52.8973 46.8398L54.4236 45.5474ZM54.0468 44.7393C54.0032 44.4858 54.0316 44.1002 54.235 43.5414L52.3556 42.8573C52.081 43.6118 51.9533 44.3657 52.0756 45.0778L54.0468 44.7393ZM54.235 43.5414C54.4932 42.8319 54.9469 42.1007 55.6311 41.3509L54.1537 40.0028C53.332 40.9033 52.7209 41.8538 52.3556 42.8573L54.235 43.5414ZM55.6542 41.3246C56.3456 40.5115 57.1496 39.7315 58.0693 38.9858L56.8097 37.4323C55.803 38.2486 54.9089 39.1138 54.1306 40.029L55.6542 41.3246ZM58.0857 38.9722C58.9977 38.2 59.9412 37.471 60.9163 36.7851L59.7655 35.1493C58.7415 35.8697 57.7508 36.6352 56.7933 37.4459L58.0857 38.9722ZM60.9163 36.7851C61.9148 36.0827 62.8249 35.4453 63.6464 34.8729L62.5031 33.2319C61.6786 33.8063 60.7661 34.4455 59.7655 35.1493L60.9163 36.7851ZM63.6527 34.8685C64.8205 34.0415 65.9523 33.2668 67.0482 32.5444L65.9475 30.8746C64.8314 31.6102 63.6812 32.3975 62.4968 33.2363L63.6527 34.8685ZM67.033 32.5542C68.1667 31.8361 69.1729 31.2012 70.0516 30.6494L68.9881 28.9556C68.1066 29.5091 67.0981 30.1455 65.9627 30.8647L67.033 32.5542ZM70.0323 30.6612C70.9411 30.1189 71.6646 29.6867 72.2026 29.3646L71.1753 27.6486C70.6385 27.97 69.9159 28.4017 69.0074 28.9438L70.0323 30.6612ZM72.1709 29.3828C72.1759 29.38 72.1923 29.371 72.1972 29.3683C72.2267 29.3521 72.1937 29.3702 72.2231 29.3541C72.2329 29.3487 72.2645 29.3313 72.2737 29.3262C72.3467 29.2861 72.2991 29.3123 72.3699 29.2733C72.4756 29.2152 72.4454 29.2318 72.5423 29.1785C72.6269 29.1319 72.6124 29.1399 72.6882 29.0982C72.7513 29.0635 72.6903 29.0971 72.7512 29.0636C72.7786 29.0485 72.7534 29.0624 72.7802 29.0476C72.8151 29.0284 72.7594 29.0591 72.7941 29.04C72.8094 29.0316 72.7924 29.0409 72.8076 29.0326C72.8126 29.0298 72.8288 29.0209 72.8333 29.0184C72.8338 29.0181 72.8573 29.0052 72.8573 29.0052C72.9104 28.976 72.8496 29.0095 72.9004 28.9815C72.909 28.9768 72.9306 28.9649 72.9369 28.9614C72.9464 28.9562 72.9438 28.9577 72.9527 28.9528C72.9532 28.9525 72.9668 28.945 72.9668 28.945C72.9718 28.9422 72.9871 28.9338 72.99 28.9322C72.9972 28.9282 73.0015 28.9259 73.0066 28.9231C73.0141 28.9189 73.0053 28.9238 73.0124 28.9199C73.0205 28.9154 73.0089 28.9218 73.0165 28.9176C73.0197 28.9159 73.0149 28.9185 73.018 28.9168C73.0188 28.9164 73.0177 28.917 73.0185 28.9165C73.0186 28.9165 73.0187 28.9164 73.0188 28.9164C73.0189 28.9163 73.0189 28.9163 73.019 28.9163C73.0192 28.9162 73.0192 28.9161 73.0194 28.9161C73.0194 28.9161 73.0195 28.916 73.0195 28.916C73.0195 28.916 73.0195 28.916 73.0196 28.916C73.0196 28.916 73.0196 28.9159 73.0196 28.9159C73.0196 28.9159 73.0196 28.9159 73.0197 28.9159C73.0197 28.9159 73.0197 28.9159 73.0197 28.9159C73.0197 28.9159 73.0197 28.9159 73.0197 28.9159C73.0198 28.9159 73.0198 28.9158 73.0198 28.9158C73.0198 28.9158 73.0198 28.9158 73.0198 28.9158C73.0198 28.9158 73.0198 28.9158 73.0198 28.9158C73.0198 28.9158 73.0198 28.9158 73.0198 28.9158C73.0198 28.9158 73.0198 28.9158 72.5379 28.0396C72.0559 27.1634 72.0559 27.1634 72.0559 27.1634C72.0559 27.1634 72.0559 27.1634 72.0559 27.1634C72.0559 27.1635 72.0559 27.1635 72.0558 27.1635C72.0558 27.1635 72.0558 27.1635 72.0557 27.1636C72.0555 27.1636 72.0553 27.1637 72.0551 27.1639C72.0543 27.1643 72.0539 27.1645 72.0526 27.1653C72.0483 27.1676 72.0491 27.1671 72.0426 27.1707C72.0203 27.183 72.034 27.1755 72.0028 27.1926C71.9405 27.2269 71.9414 27.2264 71.8437 27.2802C71.7971 27.3058 71.7797 27.3154 71.7243 27.3459C71.722 27.3471 71.6591 27.3817 71.6546 27.3842C71.6407 27.3918 71.6318 27.3967 71.6173 27.4047C71.6101 27.4087 71.5862 27.4218 71.5784 27.4261C71.5775 27.4266 71.5767 27.427 71.5759 27.4275C71.575 27.4279 71.5742 27.4284 71.5734 27.4289C71.5715 27.4299 71.5703 27.4306 71.5684 27.4316C71.5626 27.4348 71.564 27.434 71.5583 27.4372C71.5505 27.4414 71.5456 27.4441 71.5377 27.4485C71.5078 27.4649 71.5259 27.455 71.4955 27.4717C71.4624 27.4899 71.4411 27.5016 71.4059 27.521C71.3882 27.5307 71.3769 27.5369 71.3587 27.547C71.3541 27.5495 71.3391 27.5577 71.3344 27.5603C71.3298 27.5629 71.3268 27.5645 71.3221 27.5671C71.3177 27.5695 71.3204 27.568 71.316 27.5705C71.3149 27.571 71.3139 27.5716 71.3129 27.5722C71.3118 27.5727 71.3108 27.5733 71.3098 27.5739C71.3087 27.5744 71.3077 27.575 71.3066 27.5756C71.3056 27.5761 71.3046 27.5767 71.3035 27.5773C71.3011 27.5786 71.2997 27.5794 71.2973 27.5807C71.2949 27.582 71.2871 27.5863 71.2847 27.5877C71.2799 27.5903 71.2641 27.599 71.2592 27.6017C71.2222 27.622 71.2445 27.6097 71.207 27.6304L72.1709 29.3828ZM73.3212 28.6612C73.1375 28.8927 72.8891 28.9676 72.7251 28.9768C72.5923 28.9842 72.5188 28.9514 72.5424 28.96L73.2264 27.0806C73.0787 27.0268 72.8618 26.966 72.6135 26.9799C72.334 26.9955 71.998 27.1113 71.7545 27.418L73.3212 28.6612ZM72.5424 28.96C72.526 28.954 72.3428 28.882 72.2321 28.6444C72.1213 28.4069 72.1839 28.2203 72.1898 28.2039L74.0692 28.888C74.1687 28.6147 74.2372 28.212 74.0447 27.7992C73.8522 27.3864 73.4997 27.1801 73.2264 27.0806L72.5424 28.96ZM72.1898 28.2039C72.2123 28.1422 72.2369 28.0977 72.2523 28.0725C72.2681 28.0464 72.2808 28.0299 72.2858 28.0236C72.2946 28.0125 72.2906 28.0192 72.2628 28.0456L73.6379 29.4979C73.7429 29.3985 73.9613 29.1845 74.0692 28.888L72.1898 28.2039ZM72.9504 28.7717C72.4684 27.8955 72.4684 27.8956 72.4684 27.8956C72.4684 27.8956 72.4684 27.8956 72.4684 27.8956C72.4684 27.8956 72.4683 27.8956 72.4683 27.8956C72.4683 27.8956 72.4683 27.8956 72.4683 27.8956C72.4683 27.8956 72.4683 27.8956 72.4683 27.8956C72.4683 27.8956 72.4682 27.8957 72.4682 27.8957C72.4682 27.8957 72.4681 27.8957 72.4681 27.8957C72.4681 27.8957 72.4681 27.8957 72.4681 27.8957C72.468 27.8958 72.468 27.8958 72.4679 27.8958C72.4679 27.8958 72.4679 27.8958 72.4678 27.8959C72.4678 27.8959 72.4678 27.8959 72.4678 27.8959C72.4677 27.8959 72.4676 27.896 72.4676 27.896C72.4675 27.896 72.4656 27.8971 72.4651 27.8974C72.4649 27.8975 72.4635 27.8982 72.4632 27.8984C72.4631 27.8984 72.463 27.8985 72.4629 27.8985C72.4629 27.8986 72.4628 27.8986 72.4627 27.8987C72.4626 27.8987 72.4625 27.8988 72.4624 27.8988C72.4623 27.8989 72.4622 27.8989 72.4621 27.899C72.461 27.8996 72.4621 27.899 72.4609 27.8997C72.4595 27.9004 72.4611 27.8996 72.4596 27.9004C72.4595 27.9005 72.4584 27.901 72.4582 27.9011C72.4577 27.9014 72.4558 27.9025 72.4551 27.9028C72.4527 27.9042 72.4266 27.9185 72.4153 27.9247C72.4145 27.9252 72.3885 27.9395 72.3855 27.9412C72.3842 27.9419 72.3699 27.9497 72.3681 27.9507C72.3614 27.9544 72.3562 27.9573 72.349 27.9612C72.3456 27.9631 72.3115 27.9818 72.3059 27.9849C72.3024 27.9868 72.2618 28.0092 72.2562 28.0123C72.2515 28.0149 72.2341 28.0245 72.2288 28.0273C72.2151 28.0349 72.214 28.0355 72.1998 28.0433C72.1992 28.0436 72.1985 28.044 72.1979 28.0443C72.1973 28.0447 72.1967 28.045 72.196 28.0454C72.1958 28.0455 72.1925 28.0473 72.1923 28.0474C72.1914 28.0479 72.1894 28.049 72.1885 28.0495C72.1878 28.0499 72.1872 28.0502 72.1866 28.0506C72.1859 28.0509 72.1853 28.0513 72.1846 28.0516C72.1838 28.0521 72.1701 28.0596 72.1691 28.0602C72.1674 28.0611 72.139 28.0767 72.1368 28.078C72.0885 28.1045 72.048 28.1268 71.9909 28.1582C71.9512 28.1801 71.9499 28.1808 71.908 28.2038C71.9063 28.2047 71.8223 28.251 71.8184 28.2531C71.7745 28.2772 71.6722 28.3335 71.6195 28.3625L72.5834 30.1149C72.5898 30.1114 72.6034 30.1039 72.6097 30.1004C72.6099 30.1003 72.6356 30.0862 72.6356 30.0862C72.6793 30.0622 72.6431 30.0821 72.6862 30.0584C72.6997 30.0509 72.7711 30.0116 72.7824 30.0055C72.8275 29.9806 72.9185 29.9306 72.9548 29.9106C72.9923 29.89 72.9568 29.9095 72.9938 29.8892C72.9984 29.8866 73.0081 29.8813 73.0126 29.8788C73.0261 29.8714 73.0085 29.8811 73.0219 29.8737C73.023 29.8731 73.0254 29.8718 73.0265 29.8712C73.0273 29.8707 73.028 29.8703 73.0288 29.8699C73.0296 29.8695 73.0303 29.8691 73.0311 29.8686C73.0314 29.8685 73.0353 29.8663 73.0356 29.8661C73.0364 29.8657 73.0371 29.8653 73.0379 29.8649C73.0386 29.8645 73.0394 29.8641 73.0401 29.8637C73.0409 29.8632 73.0416 29.8628 73.0424 29.8624C73.0431 29.862 73.0439 29.8616 73.0446 29.8612C73.0454 29.8608 73.0461 29.8604 73.0469 29.86C73.0476 29.8595 73.0484 29.8591 73.0491 29.8587C73.0497 29.8584 73.0574 29.8541 73.058 29.8539C73.0622 29.8515 73.0625 29.8514 73.0667 29.849C73.0751 29.8444 73.0757 29.8441 73.0839 29.8396C73.085 29.839 73.0998 29.8309 73.1007 29.8303C73.1235 29.8178 73.2062 29.7723 73.2201 29.7647C73.2206 29.7644 73.2212 29.7641 73.2217 29.7638C73.2223 29.7635 73.2228 29.7632 73.2234 29.7629C73.2239 29.7626 73.2245 29.7623 73.225 29.762C73.2256 29.7616 73.2261 29.7613 73.2267 29.7611C73.2329 29.7576 73.2269 29.7609 73.2331 29.7575C73.2378 29.7549 73.2413 29.753 73.2458 29.7505C73.2463 29.7502 73.2468 29.75 73.2473 29.7497C73.2479 29.7494 73.2484 29.7491 73.2489 29.7488C73.2494 29.7485 73.2499 29.7483 73.2504 29.748C73.2509 29.7477 73.2514 29.7474 73.252 29.7471C73.2527 29.7467 73.2573 29.7442 73.258 29.7438C73.2624 29.7414 73.2596 29.7429 73.264 29.7405C73.2645 29.7403 73.265 29.74 73.2655 29.7397C73.2659 29.7394 73.2664 29.7392 73.2669 29.7389C73.2674 29.7386 73.2679 29.7384 73.2684 29.7381C73.2689 29.7378 73.2694 29.7376 73.2698 29.7373C73.2702 29.7371 73.2724 29.7359 73.2727 29.7357C73.2745 29.7348 73.2739 29.7351 73.2756 29.7341C73.2783 29.7326 73.2785 29.7325 73.2812 29.731C73.2879 29.7274 73.2857 29.7286 73.2922 29.725C73.2932 29.7244 73.3019 29.7197 73.3028 29.7192C73.3032 29.7189 73.3037 29.7187 73.3041 29.7185C73.3045 29.7182 73.3049 29.718 73.3054 29.7178C73.3069 29.7169 73.3064 29.7172 73.3079 29.7164C73.3083 29.7161 73.3088 29.7159 73.3092 29.7157C73.3096 29.7154 73.31 29.7152 73.3104 29.715C73.3109 29.7147 73.3113 29.7145 73.3117 29.7143C73.3121 29.7141 73.3125 29.7138 73.3129 29.7136C73.3539 29.691 73.3471 29.6948 73.3793 29.6771C73.3921 29.67 73.3918 29.6702 73.4025 29.6643C73.403 29.664 73.4116 29.6593 73.4116 29.6593C73.4131 29.6585 73.4142 29.6579 73.4155 29.6572C73.4189 29.6553 73.4158 29.657 73.4191 29.6552C73.4199 29.6548 73.4246 29.6522 73.4249 29.652C73.4254 29.6517 73.429 29.6498 73.429 29.6498C73.4302 29.6491 73.4294 29.6495 73.4305 29.649C73.4313 29.6485 73.4308 29.6488 73.4315 29.6484C73.4318 29.6482 73.4316 29.6483 73.4319 29.6482C73.4321 29.648 73.4319 29.6482 73.4321 29.648C73.4321 29.648 73.4322 29.648 73.4322 29.648C73.4322 29.648 73.4322 29.648 73.4322 29.648C73.4323 29.648 73.4322 29.648 73.4323 29.648C73.4323 29.648 73.4323 29.6479 73.4323 29.6479C73.4323 29.6479 73.4323 29.6479 73.4323 29.6479C73.4323 29.6479 73.4323 29.6479 73.4323 29.6479C73.4323 29.6479 73.4323 29.6479 72.9504 28.7717ZM71.5878 28.3807C71.051 28.7021 70.3284 29.1338 69.4199 29.6759L70.4448 31.3934C71.3536 30.851 72.0771 30.4188 72.6151 30.0967L71.5878 28.3807ZM69.4162 29.6781C68.5385 30.207 67.5298 30.8325 66.3908 31.554L67.4611 33.2435C68.5912 32.5277 69.5868 31.9104 70.4485 31.3911L69.4162 29.6781ZM66.3756 31.5638C65.2633 32.297 64.1216 33.0677 62.9505 33.8758L64.0863 35.5219C65.2466 34.7213 66.3766 33.9586 67.4763 33.2337L66.3756 31.5638ZM62.9557 33.8722C62.1747 34.4039 61.3015 35.014 60.3364 35.7022L61.4976 37.3306C62.4537 36.6488 63.3148 36.0472 64.0812 35.5255L62.9557 33.8722ZM60.3364 35.7022C59.3563 36.401 58.3952 37.1393 57.4531 37.9169L58.7262 39.4594C59.6326 38.7113 60.5564 38.0017 61.4976 37.3306L60.3364 35.7022ZM57.4531 37.9169C56.4895 38.7122 55.6246 39.5499 54.8609 40.4308L56.3721 41.7409C57.0573 40.9506 57.8412 40.1898 58.7262 39.4594L57.4531 37.9169ZM54.885 40.404C54.0755 41.2724 53.4742 42.1824 53.1265 43.1379L55.0059 43.8219C55.24 43.1786 55.6723 42.4926 56.348 41.7677L54.885 40.404ZM53.1265 43.1379C52.8982 43.765 52.7981 44.4164 52.9375 45.0469L54.8903 44.615C54.8587 44.4719 54.86 44.2226 55.0059 43.8219L53.1265 43.1379ZM52.948 45.0896C53.0897 45.6188 53.3596 46.0842 53.7507 46.4678L55.1512 45.0399C55.0181 44.9095 54.93 44.7596 54.8799 44.5723L52.948 45.0896ZM53.7507 46.4678C54.0836 46.7943 54.4652 47.0722 54.8887 47.3045L55.8506 45.551C55.5734 45.3989 55.3425 45.2276 55.1512 45.0399L53.7507 46.4678ZM54.9615 47.3407C55.3708 47.5236 55.7731 47.6873 56.1683 47.8311L56.8523 45.9517C56.5052 45.8254 56.147 45.6799 55.7777 45.5148L54.9615 47.3407ZM56.1683 47.8311C57.5186 48.3225 59.0591 48.5813 60.7735 48.6282L60.8281 46.6289C59.2771 46.5865 57.9573 46.3539 56.8523 45.9517L56.1683 47.8311ZM60.791 48.6285C62.4923 48.6451 64.2417 48.5139 66.0383 48.2368L65.7335 46.2602C64.0361 46.5219 62.3954 46.6441 60.8106 46.6286L60.791 48.6285ZM66.0449 48.2358C67.87 47.9418 69.7014 47.5355 71.5386 47.0172L70.9956 45.0923C69.2298 45.5905 67.4736 45.9799 65.7269 46.2612L66.0449 48.2358ZM71.5296 47.0197C73.3918 46.5131 75.1529 45.934 76.812 45.2815L76.0801 43.4203C74.4942 44.0439 72.8027 44.6007 71.0047 45.0898L71.5296 47.0197ZM76.5604 45.3443C76.5985 45.34 76.6062 45.3412 76.592 45.3408C76.584 45.3406 76.5632 45.3397 76.533 45.3351C76.5038 45.3306 76.4539 45.3209 76.3922 45.2985L77.0762 43.4191C76.7797 43.3111 76.4754 43.3409 76.3317 43.3574L76.5604 45.3443ZM76.3922 45.2985C76.3758 45.2925 76.1926 45.2205 76.0819 44.9829C75.9711 44.7454 76.0337 44.5588 76.0396 44.5424L77.919 45.2265C78.0185 44.9532 78.087 44.5505 77.8945 44.1377C77.702 43.7249 77.3495 43.5186 77.0762 43.4191L76.3922 45.2985ZM76.0396 44.5424C76.0628 44.4788 76.102 44.4103 76.1598 44.3488C76.2167 44.2883 76.2754 44.2516 76.3191 44.2312L77.1644 46.0438C77.5054 45.8848 77.7808 45.6062 77.919 45.2265L76.0396 44.5424ZM76.3968 44.1989C74.7384 44.8084 73.0129 45.3787 71.2204 45.9098L71.7884 47.8274C73.6198 47.2849 75.3859 46.7012 77.0867 46.0761L76.3968 44.1989ZM71.2111 45.9125C69.4703 46.4466 67.7305 46.8534 65.9914 47.1334L66.3094 49.108C68.1421 48.8129 69.9717 48.3848 71.7977 47.8246L71.2111 45.9125ZM65.9914 47.1334C64.2614 47.412 62.5789 47.5325 60.9429 47.4971L60.8996 49.4966C62.6639 49.5348 64.4675 49.4046 66.3094 49.108L65.9914 47.1334ZM60.9371 47.497C59.368 47.4721 57.9152 47.2115 56.5718 46.7225L55.8877 48.6019C57.4563 49.1729 59.1313 49.4686 60.9054 49.4967L60.9371 47.497ZM79.8028 24.4762C79.6841 24.8024 79.4802 25.0364 79.1438 25.2076L80.051 26.99C80.8259 26.5957 81.3853 25.976 81.6822 25.1602L79.8028 24.4762ZM79.1748 25.1925C78.8728 25.3334 78.5898 25.3469 78.2652 25.2287L77.5812 27.1081C78.3985 27.4056 79.2318 27.3727 80.0201 27.0051L79.1748 25.1925ZM78.2652 25.2287C77.939 25.11 77.7049 24.906 77.5338 24.5697L75.7513 25.4769C76.1457 26.2518 76.7654 26.8112 77.5812 27.1081L78.2652 25.2287ZM77.5629 24.6322C77.4153 24.2849 77.4095 23.9745 77.5282 23.6483L75.6489 22.9642C75.3519 23.78 75.3822 24.6143 75.7222 25.4145L77.5629 24.6322ZM77.5282 23.6483C77.6464 23.3237 77.8386 23.1156 78.1407 22.9747L77.2954 21.1621C76.5072 21.5297 75.9464 22.1469 75.6489 22.9642L77.5282 23.6483ZM78.1092 22.9888C78.4565 22.8412 78.7669 22.8354 79.0931 22.9541L79.7771 21.0747C78.9614 20.7778 78.1271 20.8081 77.3269 21.1481L78.1092 22.9888ZM79.0931 22.9541C79.4177 23.0723 79.6258 23.2645 79.7666 23.5665L81.5792 22.7213C81.2117 21.933 80.5945 21.3722 79.7771 21.0747L79.0931 22.9541ZM79.7666 23.5666C79.9075 23.8686 79.921 24.1515 79.8028 24.4762L81.6822 25.1602C81.9797 24.3428 81.9468 23.5096 81.5792 22.7213L79.7666 23.5666Z" fill="#622081" mask="url(#path-1-outside-1_102_57)"/>
</g>
<g filter="url(#filter1_d_102_57)">
<mask id="path-3-outside-2_102_57" maskUnits="userSpaceOnUse" x="62.1838" y="29.5491" width="55.6575" height="52.8226" fill="black">
<rect fill="white" x="62.1838" y="29.5491" width="55.6575" height="52.8226"/>
<path d="M64.481 49.3111C64.3954 49.3186 64.6913 49.2496 65.3687 49.1041C66.0227 48.939 66.9104 48.732 68.0316 48.4829C69.149 48.1911 70.4358 47.8629 71.8919 47.4982C73.3675 47.1104 74.8938 46.6857 76.4709 46.2242C78.7215 45.5745 80.579 44.9914 82.0434 44.4751C83.5274 43.9356 84.7252 43.4534 85.6369 43.0286C86.5719 42.6233 87.2636 42.2716 87.7119 41.9736C88.1603 41.6756 88.4723 41.4219 88.6481 41.2124C88.7653 41.0728 88.8201 40.9601 88.8126 40.8745C88.848 40.7852 88.8949 40.7056 88.9535 40.6358C89.1293 40.4263 89.3219 40.4095 89.5313 40.5852C89.7873 40.8 89.7005 41.1635 89.2709 41.6755C88.8412 42.1875 87.705 42.88 85.862 43.7529C84.0386 44.6025 81.3219 45.595 77.712 46.7303C83.3666 46.0415 88.2854 46.064 92.4686 46.7979C96.6751 47.5512 100.012 48.963 102.479 51.0331C103.899 52.2243 104.832 53.4042 105.279 54.5728C105.746 55.718 105.579 56.7678 104.779 57.722C104.388 58.1875 103.894 58.5865 103.298 58.919C102.721 59.2282 102.151 59.483 101.586 59.6834C101.021 59.8838 100.538 60.0338 100.137 60.1336C99.7558 60.2101 99.5437 60.2502 99.5009 60.254C99.5009 60.254 99.3315 60.2904 98.9928 60.3631C98.697 60.4322 98.2843 60.5222 97.7549 60.6332C97.2255 60.7442 96.6221 60.8725 95.9447 61.018C95.2906 61.183 94.6073 61.383 93.8946 61.6179C90.6196 62.6376 88.4841 63.741 87.4881 64.9279C87.078 65.4167 86.8778 65.9626 86.8874 66.5656C86.9166 67.1453 87.2686 67.7183 87.9436 68.2846C88.7349 68.9486 89.9584 69.4993 91.614 69.9368C93.293 70.3937 95.4041 70.7373 97.9474 70.9677C99.1218 71.0806 100.25 71.1545 101.331 71.1892C102.436 71.2436 103.42 71.2761 104.283 71.2868C105.147 71.2975 105.826 71.292 106.32 71.2704C106.857 71.245 107.125 71.2323 107.125 71.2323C107.257 71.2638 107.347 71.2991 107.393 71.3382C107.603 71.514 107.619 71.7066 107.444 71.916C107.366 72.0091 107.262 72.0613 107.134 72.0725C106.231 72.1084 105.272 72.1168 104.257 72.0978C103.394 72.0871 102.4 72.0662 101.276 72.0351C100.194 72.0004 99.0664 71.9265 97.892 71.8136C92.7198 71.3604 89.2377 70.3819 87.4456 68.8781C86.631 68.1946 86.1881 67.4462 86.117 66.633C86.0458 65.8197 86.2934 65.0756 86.8598 64.4007C87.9924 63.0508 90.2605 61.8603 93.6639 60.8294C94.3803 60.6373 95.0753 60.4471 95.7489 60.2588C96.4458 60.09 97.059 59.9501 97.5884 59.8391C98.2229 59.6973 98.8166 59.5806 99.3693 59.4892C100.004 59.3474 100.625 59.1744 101.232 58.9703C101.735 58.797 102.253 58.5576 102.787 58.2521C103.344 57.9661 103.789 57.6253 104.121 57.2296C105.332 55.7866 104.587 53.9324 101.887 51.6671C100.468 50.4758 98.8448 49.5503 97.0187 48.8906C95.2121 48.2076 93.3252 47.7149 91.3579 47.4126C89.3905 47.1103 87.3838 46.9732 85.3375 47.0012C83.3108 47.006 81.3674 47.1006 79.5073 47.2849C77.6473 47.4692 75.9212 47.7064 74.3292 47.9967C72.7372 48.2869 71.3904 48.5449 70.2887 48.7707C69.549 48.9432 68.8522 49.112 68.1981 49.2771C67.5207 49.4226 66.929 49.5606 66.4228 49.6912C65.8934 49.8022 65.471 49.9038 65.1556 49.9961C64.8402 50.0884 64.6825 50.1346 64.6825 50.1346L64.481 49.3111Z"/>
</mask>
<path d="M64.481 49.3111C64.3954 49.3186 64.6913 49.2496 65.3687 49.1041C66.0227 48.939 66.9104 48.732 68.0316 48.4829C69.149 48.1911 70.4358 47.8629 71.8919 47.4982C73.3675 47.1104 74.8938 46.6857 76.4709 46.2242C78.7215 45.5745 80.579 44.9914 82.0434 44.4751C83.5274 43.9356 84.7252 43.4534 85.6369 43.0286C86.5719 42.6233 87.2636 42.2716 87.7119 41.9736C88.1603 41.6756 88.4723 41.4219 88.6481 41.2124C88.7653 41.0728 88.8201 40.9601 88.8126 40.8745C88.848 40.7852 88.8949 40.7056 88.9535 40.6358C89.1293 40.4263 89.3219 40.4095 89.5313 40.5852C89.7873 40.8 89.7005 41.1635 89.2709 41.6755C88.8412 42.1875 87.705 42.88 85.862 43.7529C84.0386 44.6025 81.3219 45.595 77.712 46.7303C83.3666 46.0415 88.2854 46.064 92.4686 46.7979C96.6751 47.5512 100.012 48.963 102.479 51.0331C103.899 52.2243 104.832 53.4042 105.279 54.5728C105.746 55.718 105.579 56.7678 104.779 57.722C104.388 58.1875 103.894 58.5865 103.298 58.919C102.721 59.2282 102.151 59.483 101.586 59.6834C101.021 59.8838 100.538 60.0338 100.137 60.1336C99.7558 60.2101 99.5437 60.2502 99.5009 60.254C99.5009 60.254 99.3315 60.2904 98.9928 60.3631C98.697 60.4322 98.2843 60.5222 97.7549 60.6332C97.2255 60.7442 96.6221 60.8725 95.9447 61.018C95.2906 61.183 94.6073 61.383 93.8946 61.6179C90.6196 62.6376 88.4841 63.741 87.4881 64.9279C87.078 65.4167 86.8778 65.9626 86.8874 66.5656C86.9166 67.1453 87.2686 67.7183 87.9436 68.2846C88.7349 68.9486 89.9584 69.4993 91.614 69.9368C93.293 70.3937 95.4041 70.7373 97.9474 70.9677C99.1218 71.0806 100.25 71.1545 101.331 71.1892C102.436 71.2436 103.42 71.2761 104.283 71.2868C105.147 71.2975 105.826 71.292 106.32 71.2704C106.857 71.245 107.125 71.2323 107.125 71.2323C107.257 71.2638 107.347 71.2991 107.393 71.3382C107.603 71.514 107.619 71.7066 107.444 71.916C107.366 72.0091 107.262 72.0613 107.134 72.0725C106.231 72.1084 105.272 72.1168 104.257 72.0978C103.394 72.0871 102.4 72.0662 101.276 72.0351C100.194 72.0004 99.0664 71.9265 97.892 71.8136C92.7198 71.3604 89.2377 70.3819 87.4456 68.8781C86.631 68.1946 86.1881 67.4462 86.117 66.633C86.0458 65.8197 86.2934 65.0756 86.8598 64.4007C87.9924 63.0508 90.2605 61.8603 93.6639 60.8294C94.3803 60.6373 95.0753 60.4471 95.7489 60.2588C96.4458 60.09 97.059 59.9501 97.5884 59.8391C98.2229 59.6973 98.8166 59.5806 99.3693 59.4892C100.004 59.3474 100.625 59.1744 101.232 58.9703C101.735 58.797 102.253 58.5576 102.787 58.2521C103.344 57.9661 103.789 57.6253 104.121 57.2296C105.332 55.7866 104.587 53.9324 101.887 51.6671C100.468 50.4758 98.8448 49.5503 97.0187 48.8906C95.2121 48.2076 93.3252 47.7149 91.3579 47.4126C89.3905 47.1103 87.3838 46.9732 85.3375 47.0012C83.3108 47.006 81.3674 47.1006 79.5073 47.2849C77.6473 47.4692 75.9212 47.7064 74.3292 47.9967C72.7372 48.2869 71.3904 48.5449 70.2887 48.7707C69.549 48.9432 68.8522 49.112 68.1981 49.2771C67.5207 49.4226 66.929 49.5606 66.4228 49.6912C65.8934 49.8022 65.471 49.9038 65.1556 49.9961C64.8402 50.0884 64.6825 50.1346 64.6825 50.1346L64.481 49.3111Z" fill="#622081"/>
<path d="M64.481 49.3111L65.4524 49.0735L65.2485 48.2402L64.3939 48.3149L64.481 49.3111ZM65.3687 49.1041L65.5787 50.0818L65.5961 50.078L65.6133 50.0737L65.3687 49.1041ZM68.0316 48.4829L68.2484 49.4591L68.2664 49.4551L68.2843 49.4505L68.0316 48.4829ZM71.8919 47.4982L72.1348 48.4684L72.1461 48.4654L71.8919 47.4982ZM76.4709 46.2242L76.1935 45.2635L76.19 45.2645L76.4709 46.2242ZM82.0434 44.4751L82.376 45.4183L82.3852 45.4149L82.0434 44.4751ZM85.6369 43.0286L85.2392 42.1111L85.2268 42.1164L85.2145 42.1221L85.6369 43.0286ZM87.7119 41.9736L87.1584 41.1408L87.1584 41.1408L87.7119 41.9736ZM88.8126 40.8745L87.8826 40.507L87.7959 40.7265L87.8164 40.9617L88.8126 40.8745ZM85.862 43.7529L86.2844 44.6593L86.2901 44.6566L85.862 43.7529ZM77.712 46.7303L77.412 45.7763L77.8329 47.7229L77.712 46.7303ZM92.4686 46.7979L92.6449 45.8135L92.6414 45.8129L92.4686 46.7979ZM105.279 54.5728L104.345 54.9302L104.349 54.9403L104.353 54.9502L105.279 54.5728ZM103.298 58.919L103.771 59.8003L103.778 59.7964L103.785 59.7924L103.298 58.919ZM101.586 59.6834L101.252 58.741L101.252 58.741L101.586 59.6834ZM100.137 60.1336L100.334 61.1141L100.356 61.1096L100.379 61.104L100.137 60.1336ZM99.5009 60.254L99.4137 59.2578L99.3517 59.2632L99.2908 59.2763L99.5009 60.254ZM98.9928 60.3631L98.7828 59.3854L98.7742 59.3873L98.7657 59.3893L98.9928 60.3631ZM97.7549 60.6332L97.5497 59.6545L97.5497 59.6545L97.7549 60.6332ZM95.9447 61.018L95.7347 60.0403L95.7173 60.044L95.7001 60.0484L95.9447 61.018ZM93.8946 61.6179L94.1919 62.5727L94.1998 62.5702L94.2076 62.5676L93.8946 61.6179ZM86.8874 66.5656L85.8875 66.5815L85.8878 66.5987L85.8887 66.6158L86.8874 66.5656ZM91.614 69.9368L91.8767 68.9718L91.8695 68.9699L91.614 69.9368ZM97.9474 70.9677L98.0431 69.9723L98.0376 69.9718L97.9474 70.9677ZM101.331 71.1892L101.38 70.1905L101.372 70.19L101.363 70.1898L101.331 71.1892ZM104.283 71.2868L104.271 72.2867L104.271 72.2867L104.283 71.2868ZM106.32 71.2704L106.363 72.2694L106.367 72.2692L106.32 71.2704ZM107.125 71.2323L107.357 70.2596L107.219 70.2267L107.078 70.2334L107.125 71.2323ZM107.134 72.0725L107.174 73.0717L107.197 73.0708L107.221 73.0687L107.134 72.0725ZM104.257 72.0978L104.276 71.0979L104.269 71.0979L104.257 72.0978ZM101.276 72.0351L101.243 73.0346L101.248 73.0348L101.276 72.0351ZM97.892 71.8136L97.9877 70.8182L97.9793 70.8174L97.892 71.8136ZM86.117 66.633L85.1208 66.7201L85.1208 66.7201L86.117 66.633ZM93.6639 60.8294L93.4049 59.8635L93.3894 59.8676L93.3739 59.8723L93.6639 60.8294ZM95.7489 60.2588L95.5135 59.2869L95.4965 59.291L95.4797 59.2957L95.7489 60.2588ZM97.5884 59.8391L97.7936 60.8179L97.8064 60.815L97.5884 59.8391ZM99.3693 59.4892L99.5326 60.4757L99.5601 60.4712L99.5873 60.4651L99.3693 59.4892ZM101.232 58.9703L101.551 59.9183L101.559 59.9156L101.232 58.9703ZM102.787 58.2521L102.33 57.3624L102.31 57.3728L102.29 57.3841L102.787 58.2521ZM97.0187 48.8906L96.6651 49.826L96.672 49.8286L96.6789 49.8311L97.0187 48.8906ZM91.3579 47.4126L91.5098 46.4242L91.5098 46.4242L91.3579 47.4126ZM85.3375 47.0012L85.3399 48.0013L85.3512 48.0011L85.3375 47.0012ZM79.5073 47.2849L79.4087 46.2897L79.4087 46.2897L79.5073 47.2849ZM74.3292 47.9967L74.5086 48.9804L74.5086 48.9804L74.3292 47.9967ZM70.2887 48.7707L70.088 47.791L70.0747 47.7938L70.0616 47.7968L70.2887 48.7707ZM68.1981 49.2771L68.4081 50.2548L68.4255 50.251L68.4427 50.2467L68.1981 49.2771ZM66.4228 49.6912L66.628 50.6699L66.6504 50.6652L66.6726 50.6595L66.4228 49.6912ZM65.1556 49.9961L64.8747 49.0364L64.8747 49.0364L65.1556 49.9961ZM64.6825 50.1346L63.7111 50.3722L63.9596 51.388L64.9633 51.0943L64.6825 50.1346ZM64.3939 48.3149C64.4005 48.3144 64.4134 48.3133 64.4303 48.3126C64.4436 48.312 64.4787 48.3107 64.5241 48.3131C64.5468 48.3144 64.5872 48.3173 64.6372 48.3259C64.6756 48.3325 64.7817 48.3522 64.9048 48.4122C65.0027 48.4598 65.338 48.6443 65.4405 49.0837C65.5463 49.5373 65.3126 49.8582 65.2329 49.9531C65.1395 50.0644 65.0442 50.1277 65.0107 50.1494C64.9663 50.1781 64.9288 50.1973 64.9078 50.2076C64.8658 50.2281 64.832 50.2408 64.8193 50.2454C64.7909 50.2559 64.7704 50.2618 64.7692 50.2622C64.7649 50.2634 64.789 50.2568 64.8659 50.2389C65.0046 50.2065 65.2404 50.1545 65.5787 50.0818L65.1586 48.1264C64.8196 48.1992 64.5688 48.2545 64.4116 48.2911C64.3405 48.3077 64.2643 48.326 64.2075 48.3427C64.1932 48.3469 64.1625 48.356 64.1269 48.3691C64.1107 48.3751 64.074 48.389 64.0299 48.4105C64.0079 48.4213 63.9695 48.441 63.9244 48.4701C63.8902 48.4922 63.7944 48.556 63.7008 48.6676C63.6208 48.7629 63.3869 49.0841 63.4928 49.538C63.5953 49.9777 63.9309 50.1624 64.0292 50.2103C64.1528 50.2705 64.2595 50.2903 64.2987 50.2971C64.3495 50.3058 64.391 50.3089 64.4148 50.3102C64.4941 50.3145 64.5594 50.3081 64.5682 50.3073L64.3939 48.3149ZM65.6133 50.0737C66.254 49.912 67.1311 49.7073 68.2484 49.4591L67.8147 47.5067C66.6897 47.7566 65.7915 47.966 65.124 48.1345L65.6133 50.0737ZM68.2843 49.4505C69.3976 49.1597 70.681 48.8323 72.1348 48.4683L71.649 46.5282C70.1905 46.8934 68.9003 47.2225 67.7788 47.5154L68.2843 49.4505ZM72.1461 48.4654C73.6313 48.075 75.1665 47.6478 76.7517 47.184L76.19 45.2645C74.6212 45.7235 73.1037 46.1457 71.6376 46.5311L72.1461 48.4654ZM76.7482 47.185C79.0091 46.5323 80.8867 45.9433 82.3759 45.4182L81.7109 43.532C80.2714 44.0396 78.4339 44.6167 76.1935 45.2635L76.7482 47.185ZM82.3852 45.4149C83.8829 44.8703 85.1107 44.377 86.0592 43.935L85.2145 42.1221C84.3396 42.5298 83.1718 43.0008 81.7017 43.5353L82.3852 45.4149ZM86.0346 43.9461C86.985 43.5341 87.7419 43.1545 88.2655 42.8064L87.1584 41.1408C86.7852 41.3888 86.1588 41.7125 85.2392 42.1111L86.0346 43.9461ZM88.2655 42.8064C88.7321 42.4963 89.143 42.1784 89.4142 41.8552L87.8821 40.5696C87.8017 40.6654 87.5885 40.855 87.1584 41.1408L88.2655 42.8064ZM89.4142 41.8552C89.5038 41.7484 89.6008 41.6158 89.6762 41.461C89.7489 41.3118 89.834 41.0751 89.8088 40.7874L87.8164 40.9617C87.7988 40.7596 87.8602 40.622 87.8781 40.5854C87.8986 40.5432 87.9096 40.5368 87.8821 40.5696L89.4142 41.8552ZM89.7426 41.2421C89.7419 41.2441 89.7397 41.249 89.7356 41.2559C89.7315 41.2629 89.7261 41.2707 89.7195 41.2786L88.1874 39.993C88.0561 40.1495 87.9553 40.3231 87.8826 40.507L89.7426 41.2421ZM89.7195 41.2786C89.7083 41.2919 89.578 41.4394 89.3169 41.4622C89.0558 41.4851 88.9019 41.3625 88.8885 41.3513L90.1741 39.8192C89.9513 39.6322 89.5963 39.4302 89.1426 39.4698C88.6889 39.5095 88.3744 39.7702 88.1874 39.993L89.7195 41.2786ZM88.8885 41.3513C88.8185 41.2925 88.7396 41.1927 88.6993 41.055C88.6611 40.9246 88.6765 40.8247 88.6856 40.7866C88.6937 40.7527 88.6984 40.759 88.6675 40.8112C88.6381 40.8611 88.5872 40.9346 88.5048 41.0327L90.0369 42.3183C90.2846 42.0231 90.5332 41.6602 90.6309 41.2513C90.6834 41.0314 90.6993 40.7684 90.6188 40.4934C90.5362 40.2112 90.3722 39.9854 90.1741 39.8192L88.8885 41.3513ZM88.5048 41.0327C88.3992 41.1586 88.1244 41.3908 87.576 41.7249C87.0491 42.0461 86.3385 42.4207 85.434 42.8491L86.2901 44.6566C87.2284 44.2122 88.0075 43.8041 88.6168 43.4328C89.2048 43.0745 89.7129 42.7045 90.0369 42.3183L88.5048 41.0327ZM85.4397 42.8464C83.6766 43.668 81.0097 44.6449 77.412 45.7763L78.012 47.6842C81.6342 46.5451 84.4006 45.537 86.2844 44.6593L85.4397 42.8464ZM77.8329 47.7229C83.4208 47.0423 88.2363 47.0706 92.2958 47.7828L92.6414 45.8129C88.3346 45.0574 83.3123 45.0407 77.5911 45.7376L77.8329 47.7229ZM92.2923 47.7822C96.3813 48.5145 99.5396 49.8721 101.836 51.7991L103.122 50.267C100.484 48.0538 96.9689 46.5879 92.6449 45.8135L92.2923 47.7822ZM101.836 51.7991C103.184 52.9299 103.981 53.9787 104.345 54.9302L106.213 54.2153C105.683 52.8297 104.613 51.5188 103.122 50.267L101.836 51.7991ZM104.353 54.9502C104.529 55.3817 104.567 55.7453 104.517 56.0619C104.466 56.3791 104.317 56.7168 104.012 57.0792L105.545 58.3648C106.041 57.773 106.375 57.1087 106.492 56.3761C106.608 55.643 106.496 54.9091 106.205 54.1953L104.353 54.9502ZM104.012 57.0792C103.709 57.4407 103.314 57.7651 102.811 58.0456L103.785 59.7924C104.475 59.4079 105.067 58.9343 105.545 58.3648L104.012 57.0792ZM102.826 58.0377C102.289 58.3252 101.765 58.5589 101.252 58.741L101.92 60.6258C102.537 60.4072 103.154 60.1312 103.771 59.8003L102.826 58.0377ZM101.252 58.741C100.705 58.9349 100.255 59.0739 99.8958 59.1632L100.379 61.104C100.822 60.9938 101.337 60.8327 101.92 60.6258L101.252 58.741ZM99.9407 59.1531C99.7512 59.1911 99.6069 59.2195 99.5062 59.2385C99.4556 59.2481 99.4192 59.2547 99.3951 59.2588C99.383 59.2609 99.3771 59.2619 99.3757 59.2621C99.3696 59.263 99.3868 59.2602 99.4137 59.2578L99.588 61.2502C99.672 61.2428 99.7975 61.2189 99.8779 61.2037C99.9894 61.1826 100.142 61.1526 100.334 61.1141L99.9407 59.1531ZM99.5009 60.254C99.2908 59.2763 99.2908 59.2763 99.2908 59.2763C99.2908 59.2763 99.2908 59.2763 99.2908 59.2763C99.2908 59.2763 99.2908 59.2763 99.2908 59.2763C99.2908 59.2763 99.2908 59.2763 99.2908 59.2763C99.2908 59.2763 99.2908 59.2763 99.2908 59.2763C99.2908 59.2763 99.2908 59.2763 99.2908 59.2763C99.2907 59.2763 99.2907 59.2763 99.2907 59.2763C99.2907 59.2763 99.2906 59.2764 99.2905 59.2764C99.2904 59.2764 99.2906 59.2764 99.2904 59.2764C99.2904 59.2764 99.2903 59.2764 99.2903 59.2764C99.2903 59.2764 99.2898 59.2765 99.2897 59.2765C99.2891 59.2767 99.2896 59.2766 99.2888 59.2767C99.2853 59.2775 99.2902 59.2764 99.2864 59.2773C99.285 59.2775 99.2862 59.2773 99.2847 59.2776C99.2835 59.2779 99.2852 59.2775 99.2838 59.2778C99.2837 59.2778 99.283 59.278 99.2829 59.278C99.2746 59.2798 99.2825 59.2781 99.273 59.2801C99.2602 59.2829 99.2732 59.2801 99.2591 59.2831C99.2426 59.2867 99.2411 59.287 99.2194 59.2916C99.1672 59.3029 99.2471 59.2857 99.1936 59.2972C99.1933 59.2973 99.193 59.2973 99.1927 59.2974C99.1924 59.2974 99.1921 59.2975 99.1918 59.2976C99.19 59.298 99.1919 59.2976 99.1901 59.2979C99.1885 59.2983 99.1881 59.2984 99.1865 59.2987C99.1865 59.2987 99.1793 59.3003 99.1792 59.3003C99.1656 59.3032 99.1853 59.299 99.1716 59.3019C99.1662 59.3031 99.1732 59.3016 99.1678 59.3027C99.1675 59.3028 99.1641 59.3035 99.1638 59.3036C99.0698 59.3238 99.1203 59.3129 99.0051 59.3377C98.9198 59.356 98.9924 59.3404 98.9019 59.3599C98.8751 59.3656 98.9147 59.3571 98.8879 59.3629C98.873 59.3661 98.8885 59.3627 98.8736 59.3659C98.8619 59.3685 98.8781 59.365 98.8664 59.3675C98.8642 59.368 98.8612 59.3686 98.8591 59.3691C98.8545 59.37 98.86 59.3689 98.8554 59.3698C98.8548 59.37 98.8542 59.3701 98.8536 59.3702C98.853 59.3704 98.8523 59.3705 98.8517 59.3706C98.8511 59.3708 98.8505 59.3709 98.8499 59.371C98.8493 59.3712 98.8486 59.3713 98.848 59.3714C98.8467 59.3717 98.8457 59.3719 98.8443 59.3722C98.8437 59.3724 98.8431 59.3725 98.8425 59.3726C98.8418 59.3728 98.8412 59.3729 98.8406 59.373C98.84 59.3732 98.8393 59.3733 98.8387 59.3734C98.8381 59.3736 98.8375 59.3737 98.8368 59.3738C98.8338 59.3745 98.8362 59.374 98.8331 59.3746C98.8269 59.376 98.8355 59.3741 98.8293 59.3755C98.8265 59.3761 98.8245 59.3765 98.8217 59.3771C98.816 59.3783 98.8197 59.3775 98.8141 59.3787C98.7913 59.3836 98.8214 59.3771 98.7986 59.3821C98.7751 59.3871 98.8063 59.3804 98.7828 59.3854L99.2029 61.3408C99.297 61.3206 99.5745 61.261 99.5839 61.259C99.62 61.2512 99.6643 61.2417 99.6792 61.2385C99.685 61.2372 99.7024 61.2335 99.703 61.2334C99.7045 61.2331 99.7087 61.2322 99.7089 61.2321C99.7094 61.232 99.7103 61.2318 99.7104 61.2318C99.7105 61.2318 99.7107 61.2317 99.7108 61.2317C99.7108 61.2317 99.7109 61.2317 99.7109 61.2317C99.7109 61.2317 99.7109 61.2317 99.7109 61.2317C99.7109 61.2317 99.7109 61.2317 99.7109 61.2317C99.7109 61.2317 99.7109 61.2317 99.7109 61.2317C99.7109 61.2317 99.7109 61.2317 99.5009 60.254ZM98.7657 59.3893C98.4806 59.4558 98.0765 59.544 97.5497 59.6545L97.9601 61.6119C98.4922 61.5003 98.9133 61.4085 99.22 61.337L98.7657 59.3893ZM97.5497 59.6545C97.0183 59.7659 96.4132 59.8945 95.7347 60.0403L96.1548 61.9957C96.8309 61.8504 97.4327 61.7225 97.9601 61.6119L97.5497 59.6545ZM95.7001 60.0484C95.0206 60.2198 94.3143 60.4266 93.5816 60.6681L94.2076 62.5676C94.9002 62.3394 95.5607 62.1462 96.1894 61.9876L95.7001 60.0484ZM93.5973 60.6631C90.313 61.6857 87.9211 62.8563 86.7221 64.2852L88.2542 65.5707C89.0472 64.6257 90.9262 63.5895 94.1919 62.5727L93.5973 60.6631ZM86.7221 64.2852C86.1671 64.9466 85.8738 65.7232 85.8875 66.5815L87.8873 66.5496C87.8817 66.2019 87.989 65.8868 88.2542 65.5707L86.7221 64.2852ZM85.8887 66.6158C85.9377 67.5897 86.5226 68.3977 87.3008 69.0507L88.5863 67.5186C88.0147 67.0389 87.8955 66.7009 87.8862 66.5153L85.8887 66.6158ZM87.3008 69.0507C88.2555 69.8518 89.6426 70.4502 91.3586 70.9036L91.8695 68.9699C90.2741 68.5484 89.2142 68.0455 88.5863 67.5186L87.3008 69.0507ZM91.3514 70.9017C93.1063 71.3793 95.2799 71.7302 97.8572 71.9636L98.0376 69.9718C95.5283 69.7445 93.4797 69.4081 91.8766 68.9718L91.3514 70.9017ZM97.8517 71.9631C99.0454 72.0779 100.194 72.1532 101.299 72.1887L101.363 70.1898C100.305 70.1557 99.1982 70.0833 98.0431 69.9723L97.8517 71.9631ZM101.282 72.188C102.395 72.2428 103.392 72.2758 104.271 72.2867L104.296 70.2869C103.447 70.2763 102.476 70.2443 101.38 70.1905L101.282 72.188ZM104.271 72.2867C105.141 72.2975 105.842 72.2923 106.363 72.2694L106.276 70.2713C105.809 70.2918 105.152 70.2975 104.296 70.2869L104.271 72.2867ZM106.367 72.2692C106.395 72.2679 106.536 72.2612 106.556 72.2603C106.557 72.2603 106.558 72.2602 106.558 72.2602C106.559 72.2601 106.56 72.2601 106.561 72.2601C106.567 72.2598 106.561 72.2601 106.567 72.2598C106.574 72.2594 106.57 72.2596 106.578 72.2593C106.581 72.2591 106.596 72.2584 106.599 72.2583C106.599 72.2582 106.641 72.2563 106.641 72.2563C106.695 72.2537 106.606 72.2579 106.661 72.2553C106.662 72.2553 106.663 72.2553 106.663 72.2552C106.664 72.2552 106.665 72.2551 106.666 72.2551C106.667 72.2551 106.668 72.255 106.668 72.255C106.669 72.2549 106.67 72.2549 106.671 72.2549C106.672 72.2548 106.673 72.2548 106.673 72.2547C106.674 72.2547 106.675 72.2547 106.676 72.2546C106.68 72.2544 106.676 72.2546 106.681 72.2544C106.682 72.2543 106.684 72.2542 106.686 72.2542C106.694 72.2538 106.682 72.2543 106.691 72.2539C106.701 72.2534 106.69 72.254 106.7 72.2535C106.73 72.2521 106.69 72.254 106.719 72.2526C106.779 72.2497 106.697 72.2536 106.756 72.2508C106.763 72.2505 106.767 72.2503 106.774 72.25C106.796 72.2489 106.77 72.2502 106.792 72.2491C106.793 72.2491 106.825 72.2476 106.825 72.2475C106.831 72.2473 106.824 72.2476 106.83 72.2474C106.83 72.2473 106.834 72.2472 106.834 72.2472C106.834 72.2471 106.835 72.2471 106.836 72.2471C106.836 72.247 106.837 72.247 106.838 72.247C106.844 72.2467 106.835 72.2471 106.842 72.2468C106.842 72.2468 106.846 72.2466 106.846 72.2466C106.851 72.2463 106.844 72.2467 106.85 72.2464C106.869 72.2455 106.839 72.2469 106.858 72.246C106.867 72.2456 106.97 72.2407 106.971 72.2407C107.009 72.2389 107.118 72.2337 107.122 72.2335C107.123 72.2335 107.133 72.233 107.134 72.233C107.146 72.2324 107.132 72.233 107.144 72.2325C107.161 72.2317 107.136 72.2329 107.153 72.2321C107.154 72.232 107.152 72.2321 107.154 72.232C107.154 72.232 107.154 72.232 107.154 72.232C107.154 72.232 107.154 72.232 107.155 72.232C107.155 72.232 107.155 72.232 107.155 72.232C107.155 72.2319 107.155 72.2319 107.155 72.2319C107.156 72.2319 107.156 72.2319 107.156 72.2319C107.156 72.2319 107.156 72.2319 107.156 72.2319C107.163 72.2316 107.153 72.232 107.16 72.2317C107.164 72.2315 107.167 72.2314 107.169 72.2313C107.171 72.2312 107.169 72.2313 107.171 72.2312C107.171 72.2312 107.171 72.2312 107.172 72.2312C107.172 72.2311 107.171 72.2312 107.172 72.2312C107.172 72.2311 107.172 72.2312 107.172 72.2311C107.172 72.2311 107.172 72.2311 107.172 72.2311C107.172 72.2311 107.172 72.2311 107.172 72.2311C107.172 72.2311 107.172 72.2311 107.172 72.2311C107.172 72.2311 107.172 72.2311 107.172 72.2311C107.172 72.2311 107.172 72.2311 107.172 72.2311C107.172 72.2311 107.172 72.2311 107.172 72.2311C107.172 72.2311 107.172 72.2311 107.125 71.2323C107.078 70.2334 107.078 70.2334 107.078 70.2334C107.078 70.2334 107.078 70.2334 107.078 70.2334C107.078 70.2334 107.078 70.2334 107.078 70.2334C107.078 70.2334 107.078 70.2334 107.078 70.2334C107.078 70.2334 107.077 70.2334 107.077 70.2334C107.077 70.2334 107.075 70.2335 107.075 70.2335C107.074 70.2336 107.074 70.2336 107.073 70.2336C107.071 70.2337 107.073 70.2336 107.071 70.2337C107.071 70.2337 107.07 70.2337 107.07 70.2337C107.07 70.2337 107.07 70.2337 107.07 70.2337C107.07 70.2337 107.07 70.2338 107.069 70.2338C107.069 70.2338 107.069 70.2338 107.068 70.2338C107.066 70.2339 107.069 70.2338 107.067 70.2339C107.066 70.2339 107.067 70.2339 107.066 70.2339C107.066 70.2339 107.065 70.234 107.065 70.234C107.054 70.2345 107.047 70.2348 107.027 70.2358C107.021 70.2361 107.008 70.2367 106.999 70.2371C106.93 70.2404 107.036 70.2353 106.965 70.2387C106.908 70.2414 106.982 70.2379 106.924 70.2407C106.895 70.242 106.907 70.2414 106.876 70.2429C106.808 70.2461 106.475 70.2619 106.272 70.2715L106.367 72.2692ZM106.893 72.2049C106.93 72.2138 106.937 72.2176 106.924 72.2124C106.916 72.2095 106.897 72.2015 106.87 72.1868C106.844 72.1727 106.801 72.1465 106.75 72.1042L108.036 70.5721C107.794 70.3693 107.498 70.2932 107.357 70.2596L106.893 72.2049ZM106.75 72.1042C106.737 72.093 106.589 71.9627 106.567 71.7016C106.544 71.4405 106.666 71.2866 106.678 71.2732L108.21 72.5588C108.397 72.336 108.599 71.981 108.559 71.5273C108.519 71.0736 108.259 70.7591 108.036 70.5721L106.75 72.1042ZM106.678 71.2732C106.721 71.2214 106.781 71.1704 106.857 71.1324C106.931 71.0949 106.999 71.0805 107.047 71.0763L107.221 73.0687C107.596 73.0359 107.95 72.8684 108.21 72.5588L106.678 71.2732ZM107.094 71.0733C106.213 71.1083 105.274 71.1166 104.276 71.098L104.238 73.0976C105.271 73.1169 106.249 73.1084 107.174 73.0717L107.094 71.0733ZM104.269 71.0979C103.412 71.0872 102.424 71.0665 101.303 71.0355L101.248 73.0348C102.376 73.0659 103.375 73.0869 104.245 73.0977L104.269 71.0979ZM101.308 71.0357C100.249 71.0016 99.1429 70.9292 97.9877 70.8182L97.7963 72.809C98.99 72.9238 100.139 72.9991 101.243 73.0346L101.308 71.0357ZM97.9793 70.8174C95.4309 70.5941 93.3333 70.244 91.6718 69.7771C90.0003 69.3074 88.8326 68.7366 88.0884 68.1121L86.8028 69.6442C87.8506 70.5234 89.3201 71.1937 91.1307 71.7025C92.9513 72.2141 95.1809 72.5799 97.8047 72.8098L97.9793 70.8174ZM88.0884 68.1121C87.4129 67.5453 87.1548 67.0219 87.1132 66.5458L85.1208 66.7201C85.2214 67.8706 85.8491 68.8439 86.8028 69.6442L88.0884 68.1121ZM87.1132 66.5458C87.0671 66.019 87.215 65.533 87.6258 65.0434L86.0937 63.7579C85.3718 64.6182 85.0246 65.6204 85.1208 66.7201L87.1132 66.5458ZM87.6258 65.0434C88.5594 63.9309 90.5809 62.8082 93.9538 61.7864L93.3739 59.8723C89.9401 60.9125 87.4255 62.1707 86.0937 63.7579L87.6258 65.0434ZM93.9228 61.7953C94.6425 61.6023 95.3409 61.4112 96.0182 61.2218L95.4797 59.2957C94.8097 59.483 94.1181 59.6723 93.4049 59.8635L93.9228 61.7953ZM95.9843 61.2307C96.6742 61.0636 97.2769 60.9261 97.7936 60.8178L97.3832 58.8603C96.841 58.974 96.2174 59.1164 95.5135 59.2869L95.9843 61.2307ZM97.8064 60.815C98.4256 60.6766 99.0008 60.5637 99.5326 60.4757L99.206 58.5026C98.6323 58.5975 98.0202 58.7179 97.3703 58.8631L97.8064 60.815ZM99.5873 60.4651C100.255 60.3158 100.91 60.1336 101.551 59.9183L100.914 58.0224C100.34 58.2153 99.7523 58.3789 99.1512 58.5132L99.5873 60.4651ZM101.559 59.9156C102.128 59.719 102.704 59.4519 103.284 59.12L102.29 57.3841C101.802 57.6633 101.341 57.8749 100.906 58.025L101.559 59.9156ZM103.244 59.1417C103.895 58.8075 104.453 58.3894 104.887 57.8724L103.355 56.5868C103.125 56.8611 102.794 57.1246 102.33 57.3624L103.244 59.1417ZM104.887 57.8724C105.294 57.3877 105.565 56.8312 105.652 56.2103C105.74 55.5931 105.637 54.9776 105.399 54.3841C104.935 53.2285 103.923 52.07 102.53 50.901L101.245 52.4331C102.551 53.5295 103.262 54.4308 103.543 55.1293C103.677 55.4629 103.701 55.7232 103.672 55.9302C103.643 56.1337 103.553 56.3501 103.355 56.5868L104.887 57.8724ZM102.53 50.901C101.016 49.6307 99.2897 48.6478 97.3585 47.9501L96.6789 49.8311C98.3998 50.4528 99.9191 51.3209 101.245 52.4331L102.53 50.901ZM97.3723 47.9552C95.4986 47.2468 93.5439 46.7368 91.5098 46.4242L91.206 48.401C93.1065 48.693 94.9257 49.1684 96.6651 49.826L97.3723 47.9552ZM91.5098 46.4242C89.4861 46.1132 87.4239 45.9725 85.3238 46.0013L85.3512 48.0011C87.3436 47.9738 89.295 48.1073 91.206 48.401L91.5098 46.4242ZM85.3351 46.0012C83.2789 46.0061 81.3033 46.102 79.4087 46.2897L79.6059 48.28C81.4315 48.0991 83.3426 48.0059 85.3399 48.0012L85.3351 46.0012ZM79.4087 46.2897C77.5256 46.4763 75.7723 46.7171 74.1499 47.0129L74.5086 48.9804C76.0701 48.6958 77.7689 48.462 79.6059 48.28L79.4087 46.2897ZM74.1499 47.0129C72.5535 47.3039 71.1991 47.5633 70.088 47.791L70.4895 49.7503C71.5817 49.5265 72.9209 49.2699 74.5086 48.9804L74.1499 47.0129ZM70.0616 47.7968C69.3168 47.9706 68.614 48.1408 67.9534 48.3075L68.4427 50.2467C69.0903 50.0833 69.7813 49.9159 70.5159 49.7445L70.0616 47.7968ZM67.988 48.2994C67.3014 48.4469 66.6958 48.588 66.1731 48.7229L66.6726 50.6595C67.1621 50.5332 67.7401 50.3983 68.4081 50.2548L67.988 48.2994ZM66.2176 48.7125C65.6767 48.8259 65.2258 48.9337 64.8747 49.0364L65.4364 50.9559C65.7162 50.874 66.1101 50.7785 66.628 50.6699L66.2176 48.7125ZM64.8747 49.0364C64.7175 49.0824 64.5983 49.1173 64.5199 49.1402C64.463 49.1569 64.4684 49.1553 64.4312 49.1662C64.3753 49.1825 64.4729 49.154 64.4183 49.1699C64.4135 49.1713 64.4216 49.169 64.4169 49.1703C64.4153 49.1708 64.4179 49.1701 64.4163 49.1705C64.4162 49.1706 64.4157 49.1707 64.4156 49.1707C64.4139 49.1712 64.416 49.1706 64.4144 49.1711C64.4102 49.1723 64.4173 49.1702 64.4132 49.1714C64.4093 49.1726 64.4148 49.171 64.411 49.1721C64.4101 49.1723 64.4098 49.1724 64.409 49.1726C64.4089 49.1727 64.4089 49.1727 64.4088 49.1727C64.4087 49.1727 64.4086 49.1728 64.4086 49.1728C64.4077 49.173 64.409 49.1727 64.4081 49.1729C64.4076 49.1731 64.4078 49.173 64.4073 49.1732C64.406 49.1735 64.407 49.1732 64.4058 49.1736C64.4031 49.1744 64.4071 49.1732 64.4045 49.174C64.4045 49.174 64.4044 49.174 64.4044 49.174C64.4043 49.174 64.4043 49.174 64.4042 49.174C64.4035 49.1743 64.4047 49.1739 64.404 49.1741C64.4028 49.1745 64.4047 49.1739 64.4035 49.1743C64.4028 49.1745 64.4033 49.1743 64.4027 49.1745C64.4021 49.1747 64.4029 49.1744 64.4024 49.1746C64.4021 49.1747 64.4024 49.1746 64.4022 49.1746C64.4022 49.1746 64.4022 49.1747 64.4022 49.1747C64.4021 49.1747 64.4021 49.1747 64.4021 49.1747C64.4021 49.1747 64.4021 49.1747 64.402 49.1747C64.402 49.1747 64.402 49.1747 64.402 49.1747C64.402 49.1747 64.402 49.1747 64.4019 49.1747C64.4019 49.1747 64.4019 49.1747 64.4019 49.1747C64.4017 49.1748 64.4019 49.1747 64.4017 49.1748C64.4017 49.1748 64.4018 49.1748 64.4017 49.1748C64.4017 49.1748 64.4017 49.1748 64.4017 49.1748C64.4017 49.1748 64.4017 49.1748 64.4016 49.1748C64.4016 49.1748 64.4016 49.1748 64.4016 49.1748C64.4016 49.1748 64.4016 49.1748 64.4016 49.1748C64.4016 49.1748 64.4016 49.1748 64.6825 50.1346C64.9633 51.0943 64.9633 51.0943 64.9633 51.0943C64.9633 51.0943 64.9633 51.0943 64.9633 51.0943C64.9633 51.0943 64.9633 51.0943 64.9633 51.0943C64.9633 51.0943 64.9633 51.0943 64.9633 51.0943C64.9633 51.0943 64.9633 51.0943 64.9633 51.0943C64.9634 51.0943 64.9634 51.0943 64.9634 51.0943C64.9634 51.0943 64.9633 51.0943 64.9634 51.0943C64.9634 51.0943 64.9634 51.0943 64.9634 51.0943C64.9635 51.0943 64.9635 51.0943 64.9635 51.0943C64.9636 51.0942 64.9635 51.0943 64.9636 51.0942C64.9636 51.0942 64.9636 51.0942 64.9636 51.0942C64.9636 51.0942 64.9636 51.0942 64.9637 51.0942C64.9637 51.0942 64.9637 51.0942 64.9637 51.0942C64.9637 51.0942 64.9637 51.0942 64.9638 51.0942C64.9642 51.0941 64.9638 51.0942 64.9643 51.094C64.9647 51.0939 64.9642 51.0941 64.9645 51.094C64.9646 51.094 64.9646 51.0939 64.9646 51.0939C64.9646 51.0939 64.9647 51.0939 64.9647 51.0939C64.9647 51.0939 64.9648 51.0939 64.9648 51.0939C64.9649 51.0939 64.9649 51.0939 64.9649 51.0938C64.965 51.0938 64.965 51.0938 64.965 51.0938C64.9651 51.0938 64.9651 51.0938 64.9651 51.0938C64.9652 51.0938 64.9661 51.0935 64.9662 51.0935C64.9662 51.0935 64.9663 51.0935 64.9663 51.0934C64.9664 51.0934 64.9664 51.0934 64.9665 51.0934C64.9665 51.0934 64.9666 51.0934 64.9666 51.0933C64.9667 51.0933 64.9667 51.0933 64.9668 51.0933C64.967 51.0932 64.9672 51.0932 64.9675 51.0931C64.9688 51.0927 64.969 51.0926 64.9707 51.0922C64.9732 51.0914 64.9762 51.0905 64.9799 51.0895C65.0017 51.0831 64.9699 51.0924 64.9929 51.0857C65.0118 51.0801 64.9815 51.089 65.0007 51.0834C65.0158 51.079 64.9941 51.0853 65.0095 51.0808C65.0341 51.0736 65.004 51.0824 65.0298 51.0749C65.0717 51.0626 65.0107 51.0804 65.0539 51.0678C65.074 51.0619 65.0468 51.0699 65.0673 51.0639C65.0791 51.0604 65.0624 51.0653 65.0743 51.0618C65.0743 51.0618 65.0779 51.0608 65.0779 51.0608C65.0795 51.0603 65.0799 51.0602 65.0816 51.0597C65.121 51.0482 65.0723 51.0624 65.113 51.0505C65.1282 51.0461 65.1317 51.0451 65.1481 51.0402C65.1563 51.0378 65.1585 51.0372 65.167 51.0347C65.1939 51.0269 65.1598 51.0368 65.1869 51.0289C65.2366 51.0144 65.1785 51.0314 65.2294 51.0165C65.2974 50.9966 65.2064 51.0232 65.2756 51.0029C65.2943 50.9975 65.2811 51.0013 65.3001 50.9958C65.3315 50.9866 65.2939 50.9976 65.3255 50.9883C65.3413 50.9837 65.3227 50.9892 65.3386 50.9845C65.3504 50.9811 65.3399 50.9841 65.3519 50.9806C65.3615 50.9778 65.3489 50.9815 65.3586 50.9787C65.3646 50.9769 65.3593 50.9784 65.3654 50.9767C65.3707 50.9751 65.3635 50.9772 65.3688 50.9757C65.3715 50.9749 65.3695 50.9755 65.3722 50.9747C65.3728 50.9745 65.3734 50.9743 65.3739 50.9742C65.3745 50.974 65.3751 50.9738 65.3757 50.9737C65.3762 50.9735 65.3768 50.9733 65.3774 50.9732C65.378 50.973 65.3785 50.9728 65.3791 50.9727C65.3888 50.9698 65.3729 50.9745 65.3826 50.9716C65.3832 50.9715 65.3837 50.9713 65.3843 50.9711C65.3849 50.971 65.3855 50.9708 65.3861 50.9706C65.3903 50.9694 65.3853 50.9708 65.3896 50.9696C65.3931 50.9686 65.3896 50.9696 65.3931 50.9686C65.4001 50.9665 65.3931 50.9686 65.4002 50.9665C65.4081 50.9642 65.3993 50.9667 65.4073 50.9644C65.408 50.9642 65.4354 50.9562 65.4364 50.9559L64.8747 49.0364ZM65.6538 49.8969L65.4524 49.0735L63.5097 49.5488L63.7111 50.3722L65.6538 49.8969Z" fill="#622081" mask="url(#path-3-outside-2_102_57)"/>
</g>
<g filter="url(#filter2_d_102_57)">
<path d="M156 59C156 63 151.25 71.8333 141.75 85.5C132.25 99.1667 123.25 110.917 114.75 120.75V139.5C114.75 157.167 116 170.333 118.5 179C116 180 112.333 180.5 107.5 180.5C103 180.5 100 179.667 98.5 178C97 176.333 96.25 173.5 96.25 169.5C96.25 169 96.25 164.583 96.25 156.25C96.4167 147.75 96.5 140.667 96.5 135V121.75C77 87.0833 62.1667 66.5 52 60C57.6667 53.3333 62.6667 50 67 50C71.1667 50 74.8333 52.25 78 56.75C88.3333 71.25 98.5833 88 108.75 107C115.417 97.8333 122 87 128.5 74.5C135 62 138.417 53.5 138.75 49C150.25 49.6667 156 53 156 59Z" fill="white"/>
</g>
<g filter="url(#filter3_d_102_57)">
<mask id="path-6-outside-3_102_57" maskUnits="userSpaceOnUse" x="17" y="21" width="55" height="27" fill="black">
<rect fill="white" x="17" y="21" width="55" height="27"/>
<path d="M41.2822 46.7292C39.8543 46.7292 38.7605 46.3494 38.001 45.5898C37.2718 44.7999 36.9072 43.6302 36.9072 42.0807C36.9072 40.8958 37.1199 39.5135 37.5452 37.9336C38.001 36.3234 38.6694 34.5004 39.5505 32.4648C38.6086 33.832 37.682 35.1385 36.7705 36.3841C35.859 37.5994 34.9172 38.7235 33.945 39.7565C32.9728 40.7895 31.9246 41.7313 30.8005 42.582C29.6763 43.4023 28.4459 44.1315 27.109 44.7695C25.195 45.681 23.4936 46.1367 22.0049 46.1367C20.82 46.1367 19.8933 45.8329 19.2249 45.2253C18.5565 44.5872 18.2223 43.7365 18.2223 42.6732C18.2223 41.0326 18.6933 39.0881 19.6351 36.8398C20.5465 34.5916 21.777 32.1155 23.3265 29.4115C24.2076 27.862 24.9367 26.6315 25.514 25.7201C26.1216 24.7782 26.6077 24.0642 26.9723 23.5781C27.3977 23.0312 27.7319 22.6363 27.9749 22.3932C28.0661 22.3932 28.1572 22.4388 28.2484 22.5299C28.3395 22.5907 28.3851 22.6819 28.3851 22.8034C28.3851 22.8945 28.3547 22.9705 28.2939 23.0312C28.2939 23.0312 28.1724 23.2135 27.9294 23.5781C27.6863 23.9123 27.3673 24.3832 26.9723 24.9909C26.5774 25.5985 26.1216 26.3277 25.6051 27.1784C25.0887 27.9987 24.557 28.8798 24.0101 29.8216C22.5214 32.4041 21.3213 34.8194 20.4098 37.0677C19.5288 39.2856 19.0882 41.1693 19.0882 42.7188C19.0882 43.5391 19.3313 44.1771 19.8174 44.6328C20.3035 45.0885 21.0327 45.3164 22.0049 45.3164C23.6455 45.3164 25.2406 44.9366 26.79 44.1771C28.3395 43.4175 29.813 42.4149 31.2106 41.1693C32.6386 39.9236 33.9906 38.5109 35.2666 36.931C36.5426 35.3207 37.7275 33.6801 38.8213 32.0091C39.9454 30.3381 40.9936 28.6975 41.9658 27.0872C42.938 25.4466 43.8039 23.9731 44.5635 22.6667L45.2471 23.1224C45.0648 23.4566 44.7762 23.9731 44.3812 24.6719C43.9862 25.3403 43.5305 26.1454 43.014 27.0872C42.5279 28.0291 42.0114 29.0621 41.4645 30.1862C40.948 31.2799 40.4467 32.4193 39.9606 33.6042C38.4719 37.2804 37.7275 40.1059 37.7275 42.0807C37.7275 44.6024 38.8972 45.8633 41.2367 45.8633C42.5431 45.8633 43.8799 45.5443 45.2471 44.9062C46.6143 44.2378 47.9663 43.296 49.3031 42.0807C50.6702 40.8351 51.9919 39.3312 53.2679 37.569C54.5439 35.8069 55.7288 33.8168 56.8226 31.599C56.1846 30.9306 55.7744 30.2166 55.5921 29.457C55.4402 28.6671 55.3643 28.0291 55.3643 27.543C55.3643 26.7834 55.4402 26.0694 55.5921 25.401C55.7744 24.7326 56.0175 24.1554 56.3213 23.6693C56.6251 23.1528 56.9745 22.7578 57.3695 22.4844C57.7644 22.1806 58.1898 22.0286 58.6455 22.0286C59.1012 22.0286 59.4658 22.1957 59.7393 22.5299C60.0127 22.8338 60.1494 23.3047 60.1494 23.9427C60.1494 24.3984 60.0735 24.9605 59.9216 25.6289C59.7696 26.2973 59.5722 26.9809 59.3291 27.6797C59.086 28.3481 58.8278 29.0165 58.5544 29.6849C58.2809 30.3533 58.0379 30.9154 57.8252 31.3711C58.2202 31.6749 58.6607 31.8876 59.1468 32.0091C59.6329 32.1306 60.1342 32.1914 60.6507 32.1914C61.6837 32.1914 62.7167 32.0395 63.7497 31.7357C64.813 31.4319 65.7853 31.0825 66.6663 30.6875C67.6689 30.2318 68.6564 29.7153 69.6286 29.138C69.6893 29.1076 69.7653 29.0924 69.8564 29.0924C70.1299 29.0924 70.2666 29.2292 70.2666 29.5026C70.2666 29.533 70.221 29.6089 70.1299 29.7305C70.0387 29.852 69.8109 30.0191 69.4463 30.2318C69.1121 30.4444 68.6108 30.7179 67.9424 31.0521C67.274 31.3559 66.3777 31.7053 65.2536 32.1003C63.4914 32.7079 61.9875 33.0117 60.7419 33.0117C59.3443 33.0117 58.2505 32.7231 57.4606 32.1458C56.3669 34.3637 55.1668 36.3689 53.8604 38.1615C52.5539 39.954 51.2019 41.4883 49.8044 42.7643C48.4068 44.0404 46.9788 45.0278 45.5205 45.7266C44.0926 46.395 42.6798 46.7292 41.2822 46.7292ZM58.6455 22.849C58.1898 22.849 57.7948 23.0161 57.4606 23.3503C57.1568 23.6845 56.8985 24.0946 56.6859 24.5807C56.5036 25.0365 56.3669 25.5378 56.2757 26.0846C56.215 26.6011 56.1846 27.0417 56.1846 27.4062C56.1846 28.8038 56.5188 29.928 57.1872 30.7786C57.3695 30.3837 57.5821 29.8976 57.8252 29.3203C58.0683 28.7431 58.2961 28.1354 58.5088 27.4974C58.7518 26.8594 58.9493 26.2365 59.1012 25.6289C59.2531 24.9909 59.3291 24.4136 59.3291 23.8971C59.3291 23.1983 59.1012 22.849 58.6455 22.849Z"/>
</mask>
<path d="M41.2822 46.7292C39.8543 46.7292 38.7605 46.3494 38.001 45.5898C37.2718 44.7999 36.9072 43.6302 36.9072 42.0807C36.9072 40.8958 37.1199 39.5135 37.5452 37.9336C38.001 36.3234 38.6694 34.5004 39.5505 32.4648C38.6086 33.832 37.682 35.1385 36.7705 36.3841C35.859 37.5994 34.9172 38.7235 33.945 39.7565C32.9728 40.7895 31.9246 41.7313 30.8005 42.582C29.6763 43.4023 28.4459 44.1315 27.109 44.7695C25.195 45.681 23.4936 46.1367 22.0049 46.1367C20.82 46.1367 19.8933 45.8329 19.2249 45.2253C18.5565 44.5872 18.2223 43.7365 18.2223 42.6732C18.2223 41.0326 18.6933 39.0881 19.6351 36.8398C20.5465 34.5916 21.777 32.1155 23.3265 29.4115C24.2076 27.862 24.9367 26.6315 25.514 25.7201C26.1216 24.7782 26.6077 24.0642 26.9723 23.5781C27.3977 23.0312 27.7319 22.6363 27.9749 22.3932C28.0661 22.3932 28.1572 22.4388 28.2484 22.5299C28.3395 22.5907 28.3851 22.6819 28.3851 22.8034C28.3851 22.8945 28.3547 22.9705 28.2939 23.0312C28.2939 23.0312 28.1724 23.2135 27.9294 23.5781C27.6863 23.9123 27.3673 24.3832 26.9723 24.9909C26.5774 25.5985 26.1216 26.3277 25.6051 27.1784C25.0887 27.9987 24.557 28.8798 24.0101 29.8216C22.5214 32.4041 21.3213 34.8194 20.4098 37.0677C19.5288 39.2856 19.0882 41.1693 19.0882 42.7188C19.0882 43.5391 19.3313 44.1771 19.8174 44.6328C20.3035 45.0885 21.0327 45.3164 22.0049 45.3164C23.6455 45.3164 25.2406 44.9366 26.79 44.1771C28.3395 43.4175 29.813 42.4149 31.2106 41.1693C32.6386 39.9236 33.9906 38.5109 35.2666 36.931C36.5426 35.3207 37.7275 33.6801 38.8213 32.0091C39.9454 30.3381 40.9936 28.6975 41.9658 27.0872C42.938 25.4466 43.8039 23.9731 44.5635 22.6667L45.2471 23.1224C45.0648 23.4566 44.7762 23.9731 44.3812 24.6719C43.9862 25.3403 43.5305 26.1454 43.014 27.0872C42.5279 28.0291 42.0114 29.0621 41.4645 30.1862C40.948 31.2799 40.4467 32.4193 39.9606 33.6042C38.4719 37.2804 37.7275 40.1059 37.7275 42.0807C37.7275 44.6024 38.8972 45.8633 41.2367 45.8633C42.5431 45.8633 43.8799 45.5443 45.2471 44.9062C46.6143 44.2378 47.9663 43.296 49.3031 42.0807C50.6702 40.8351 51.9919 39.3312 53.2679 37.569C54.5439 35.8069 55.7288 33.8168 56.8226 31.599C56.1846 30.9306 55.7744 30.2166 55.5921 29.457C55.4402 28.6671 55.3643 28.0291 55.3643 27.543C55.3643 26.7834 55.4402 26.0694 55.5921 25.401C55.7744 24.7326 56.0175 24.1554 56.3213 23.6693C56.6251 23.1528 56.9745 22.7578 57.3695 22.4844C57.7644 22.1806 58.1898 22.0286 58.6455 22.0286C59.1012 22.0286 59.4658 22.1957 59.7393 22.5299C60.0127 22.8338 60.1494 23.3047 60.1494 23.9427C60.1494 24.3984 60.0735 24.9605 59.9216 25.6289C59.7696 26.2973 59.5722 26.9809 59.3291 27.6797C59.086 28.3481 58.8278 29.0165 58.5544 29.6849C58.2809 30.3533 58.0379 30.9154 57.8252 31.3711C58.2202 31.6749 58.6607 31.8876 59.1468 32.0091C59.6329 32.1306 60.1342 32.1914 60.6507 32.1914C61.6837 32.1914 62.7167 32.0395 63.7497 31.7357C64.813 31.4319 65.7853 31.0825 66.6663 30.6875C67.6689 30.2318 68.6564 29.7153 69.6286 29.138C69.6893 29.1076 69.7653 29.0924 69.8564 29.0924C70.1299 29.0924 70.2666 29.2292 70.2666 29.5026C70.2666 29.533 70.221 29.6089 70.1299 29.7305C70.0387 29.852 69.8109 30.0191 69.4463 30.2318C69.1121 30.4444 68.6108 30.7179 67.9424 31.0521C67.274 31.3559 66.3777 31.7053 65.2536 32.1003C63.4914 32.7079 61.9875 33.0117 60.7419 33.0117C59.3443 33.0117 58.2505 32.7231 57.4606 32.1458C56.3669 34.3637 55.1668 36.3689 53.8604 38.1615C52.5539 39.954 51.2019 41.4883 49.8044 42.7643C48.4068 44.0404 46.9788 45.0278 45.5205 45.7266C44.0926 46.395 42.6798 46.7292 41.2822 46.7292ZM58.6455 22.849C58.1898 22.849 57.7948 23.0161 57.4606 23.3503C57.1568 23.6845 56.8985 24.0946 56.6859 24.5807C56.5036 25.0365 56.3669 25.5378 56.2757 26.0846C56.215 26.6011 56.1846 27.0417 56.1846 27.4062C56.1846 28.8038 56.5188 29.928 57.1872 30.7786C57.3695 30.3837 57.5821 29.8976 57.8252 29.3203C58.0683 28.7431 58.2961 28.1354 58.5088 27.4974C58.7518 26.8594 58.9493 26.2365 59.1012 25.6289C59.2531 24.9909 59.3291 24.4136 59.3291 23.8971C59.3291 23.1983 59.1012 22.849 58.6455 22.849Z" fill="#622081"/>
<path d="M38.001 45.5898L37.2662 46.2681L37.2797 46.2828L37.2939 46.297L38.001 45.5898ZM37.5452 37.9336L36.583 37.6612L36.5796 37.6736L37.5452 37.9336ZM39.5505 32.4648L40.4682 32.8621L38.7269 31.8975L39.5505 32.4648ZM36.7705 36.3841L37.5706 36.9842L37.5775 36.9746L36.7705 36.3841ZM30.8005 42.582L31.3899 43.3898L31.397 43.3847L31.4039 43.3794L30.8005 42.582ZM27.109 44.7695L27.539 45.6724L27.5398 45.672L27.109 44.7695ZM19.2249 45.2253L18.5345 45.9486L18.5433 45.957L18.5523 45.9652L19.2249 45.2253ZM19.6351 36.8398L20.5575 37.2263L20.5618 37.2155L19.6351 36.8398ZM23.3265 29.4115L24.1941 29.9086L24.1958 29.9058L23.3265 29.4115ZM25.514 25.7201L24.6737 25.1779L24.6692 25.185L25.514 25.7201ZM26.9723 23.5781L26.183 22.9642L26.1776 22.9711L26.1723 22.9781L26.9723 23.5781ZM27.9749 22.3932V21.3932H27.5607L27.2678 21.6861L27.9749 22.3932ZM28.2484 22.5299L27.5413 23.2371L27.6113 23.3071L27.6937 23.362L28.2484 22.5299ZM28.2939 23.0312L27.5868 22.3241L27.5168 22.3942L27.4619 22.4766L28.2939 23.0312ZM27.9294 23.5781L28.7381 24.1663L28.7501 24.1498L28.7614 24.1328L27.9294 23.5781ZM26.9723 24.9909L27.8108 25.5359L27.8108 25.5359L26.9723 24.9909ZM25.6051 27.1784L26.4514 27.7112L26.4557 27.7043L26.4599 27.6974L25.6051 27.1784ZM24.0101 29.8216L23.1453 29.3195L23.1437 29.3222L24.0101 29.8216ZM20.4098 37.0677L19.4831 36.692L19.4805 36.6985L20.4098 37.0677ZM19.8174 44.6328L20.5013 43.9033L20.5013 43.9033L19.8174 44.6328ZM31.2106 41.1693L30.5532 40.4157L30.5452 40.4228L31.2106 41.1693ZM35.2666 36.931L36.0446 37.5594L36.0503 37.5521L35.2666 36.931ZM38.8213 32.0091L37.9915 31.4509L37.9846 31.4615L38.8213 32.0091ZM41.9658 27.0872L42.8219 27.6041L42.8261 27.597L41.9658 27.0872ZM44.5635 22.6667L45.1182 21.8346L44.2334 21.2448L43.699 22.164L44.5635 22.6667ZM45.2471 23.1224L46.125 23.6012L46.5631 22.7979L45.8018 22.2903L45.2471 23.1224ZM44.3812 24.6719L45.2421 25.1806L45.247 25.1723L45.2517 25.1639L44.3812 24.6719ZM43.014 27.0872L42.1372 26.6064L42.1311 26.6174L42.1254 26.6286L43.014 27.0872ZM41.4645 30.1862L40.5652 29.7487L40.5603 29.7592L41.4645 30.1862ZM39.9606 33.6042L39.0354 33.2246L39.0337 33.2288L39.9606 33.6042ZM45.2471 44.9062L45.67 45.8124L45.6782 45.8086L45.6863 45.8046L45.2471 44.9062ZM49.3031 42.0807L49.9757 42.8207L49.9766 42.8199L49.3031 42.0807ZM53.2679 37.569L52.458 36.9825L53.2679 37.569ZM56.8226 31.599L57.7195 32.0413L58.0287 31.4142L57.5459 30.9085L56.8226 31.599ZM55.5921 29.457L54.6101 29.6459L54.6144 29.6683L54.6197 29.6904L55.5921 29.457ZM55.5921 25.401L54.6274 25.1379L54.6217 25.1586L54.617 25.1794L55.5921 25.401ZM56.3213 23.6693L57.1693 24.1993L57.1764 24.1879L57.1832 24.1763L56.3213 23.6693ZM57.3695 22.4844L57.9387 23.3066L57.9593 23.2923L57.9792 23.277L57.3695 22.4844ZM59.7393 22.5299L58.9653 23.1632L58.9802 23.1814L58.996 23.1989L59.7393 22.5299ZM59.9216 25.6289L60.8967 25.8505L60.8967 25.8505L59.9216 25.6289ZM59.3291 27.6797L60.269 28.0215L60.2736 28.0082L59.3291 27.6797ZM58.5544 29.6849L57.6288 29.3063L58.5544 29.6849ZM57.8252 31.3711L56.919 30.9482L56.5799 31.6748L57.2155 32.1637L57.8252 31.3711ZM59.1468 32.0091L59.3893 31.039L59.3893 31.039L59.1468 32.0091ZM63.7497 31.7357L63.4749 30.7741L63.4675 30.7763L63.7497 31.7357ZM66.6663 30.6875L67.0754 31.6L67.0801 31.5979L66.6663 30.6875ZM69.6286 29.138L69.1814 28.2436L69.1491 28.2597L69.118 28.2782L69.6286 29.138ZM70.1299 29.7305L70.9299 30.3305L70.9299 30.3305L70.1299 29.7305ZM69.4463 30.2318L68.9424 29.368L68.9257 29.3777L68.9094 29.3881L69.4463 30.2318ZM67.9424 31.0521L68.3562 31.9624L68.373 31.9548L68.3896 31.9465L67.9424 31.0521ZM65.2536 32.1003L65.5796 33.0456L65.5851 33.0437L65.2536 32.1003ZM57.4606 32.1458L58.0506 31.3384L57.09 30.6364L56.5637 31.7035L57.4606 32.1458ZM53.8604 38.1615L53.0522 37.5725L53.0522 37.5725L53.8604 38.1615ZM49.8044 42.7643L50.4786 43.5028L50.4786 43.5028L49.8044 42.7643ZM45.5205 45.7266L45.9445 46.6323L45.9526 46.6284L45.5205 45.7266ZM57.4606 23.3503L56.7535 22.6432L56.7367 22.66L56.7207 22.6776L57.4606 23.3503ZM56.6859 24.5807L55.7697 24.1799L55.7633 24.1945L55.7574 24.2093L56.6859 24.5807ZM56.2757 26.0846L55.2893 25.9202L55.2854 25.9439L55.2826 25.9678L56.2757 26.0846ZM57.1872 30.7786L56.4009 31.3965L57.4104 32.6813L58.0951 31.1977L57.1872 30.7786ZM57.8252 29.3203L56.9036 28.9323L56.9036 28.9323L57.8252 29.3203ZM58.5088 27.4974L57.5743 27.1414L57.5668 27.1611L57.5601 27.1812L58.5088 27.4974ZM59.1012 25.6289L60.0714 25.8715L60.074 25.8605L59.1012 25.6289ZM41.2822 45.7292C40.0292 45.7292 39.2246 45.3993 38.7081 44.8827L37.2939 46.297C38.2964 47.2995 39.6794 47.7292 41.2822 47.7292V45.7292ZM38.7358 44.9116C38.2394 44.3738 37.9072 43.4889 37.9072 42.0807H35.9072C35.9072 43.7715 36.3042 45.226 37.2662 46.2681L38.7358 44.9116ZM37.9072 42.0807C37.9072 41.0098 38.1004 39.7183 38.5109 38.1936L36.5796 37.6736C36.1394 39.3086 35.9072 40.7819 35.9072 42.0807H37.9072ZM38.5075 38.2059C38.948 36.6494 39.5994 34.8693 40.4682 32.8621L38.6327 32.0676C37.7394 34.1316 37.054 35.9973 36.583 37.6613L38.5075 38.2059ZM38.7269 31.8975C37.7901 33.2575 36.8689 34.5561 35.9635 35.7936L37.5775 36.9746C38.495 35.7208 39.4271 34.4066 40.374 33.0321L38.7269 31.8975ZM35.9705 35.7841C35.0798 36.9717 34.1618 38.0671 33.2168 39.0711L34.6732 40.4419C35.6726 39.38 36.6383 38.2271 37.5705 36.9841L35.9705 35.7841ZM33.2168 39.0711C32.2827 40.0636 31.2762 40.9679 30.197 41.7846L31.4039 43.3794C32.573 42.4947 33.6628 41.5154 34.6732 40.4419L33.2168 39.0711ZM30.211 41.7742C29.1398 42.5559 27.963 43.2539 26.6783 43.8671L27.5398 45.672C28.9288 45.0091 30.2128 44.2488 31.3899 43.3898L30.211 41.7742ZM26.6791 43.8667C24.8464 44.7394 23.2956 45.1367 22.0049 45.1367V47.1367C23.6916 47.1367 25.5436 46.6226 27.539 45.6724L26.6791 43.8667ZM22.0049 45.1367C20.9893 45.1367 20.3306 44.8789 19.8976 44.4853L18.5523 45.9652C19.4561 46.7869 20.6507 47.1367 22.0049 47.1367V45.1367ZM19.9154 44.5019C19.475 44.0816 19.2223 43.5083 19.2223 42.6732H17.2223C17.2223 43.9648 17.638 45.0929 18.5345 45.9486L19.9154 44.5019ZM19.2223 42.6732C19.2223 41.2134 19.6442 39.4062 20.5574 37.2262L18.7128 36.4535C17.7423 38.7701 17.2223 40.8517 17.2223 42.6732H19.2223ZM20.5618 37.2155C21.4524 35.0189 22.6611 32.5839 24.1941 29.9086L22.4589 28.9143C20.8929 31.647 19.6407 34.1643 18.7084 36.4641L20.5618 37.2155ZM24.1958 29.9058C25.0734 28.3624 25.7937 27.1474 26.3588 26.2551L24.6692 25.185C24.0798 26.1156 23.3418 27.3615 22.4572 28.9172L24.1958 29.9058ZM26.3543 26.2622C26.9579 25.3266 27.429 24.6359 27.7723 24.1781L26.1723 22.9781C25.7865 23.4926 25.2854 24.2298 24.6737 25.1779L26.3543 26.2622ZM27.7617 24.1921C28.1817 23.6521 28.4848 23.2976 28.682 23.1003L27.2678 21.6861C26.979 21.975 26.6137 22.4104 26.183 22.9642L27.7617 24.1921ZM27.9749 23.3932C27.7073 23.3932 27.5591 23.2549 27.5413 23.2371L28.9555 21.8228C28.7553 21.6227 28.4248 21.3932 27.9749 21.3932V23.3932ZM27.6937 23.362C27.6057 23.3033 27.5173 23.2128 27.4565 23.0911C27.3977 22.9735 27.3851 22.8682 27.3851 22.8034H29.3851C29.3851 22.3905 29.2064 21.9668 28.8031 21.6979L27.6937 23.362ZM27.3851 22.8034C27.3851 22.7362 27.3967 22.6502 27.4338 22.5573C27.4715 22.4633 27.5264 22.3846 27.5868 22.3241L29.0011 23.7384C29.2616 23.4778 29.3851 23.1419 29.3851 22.8034H27.3851ZM28.2939 23.0312C27.4619 22.4766 27.4619 22.4766 27.4619 22.4766C27.4619 22.4766 27.4619 22.4766 27.4619 22.4766C27.4619 22.4766 27.4619 22.4766 27.4619 22.4766C27.4619 22.4766 27.4619 22.4766 27.4619 22.4766C27.4619 22.4766 27.4618 22.4766 27.4618 22.4767C27.4618 22.4767 27.4618 22.4767 27.4618 22.4768C27.4617 22.4768 27.4617 22.4768 27.4617 22.4769C27.4617 22.4769 27.4617 22.4769 27.4616 22.477C27.4616 22.477 27.4615 22.4771 27.4615 22.4771C27.4615 22.4771 27.4614 22.4774 27.4613 22.4774C27.4613 22.4774 27.4612 22.4775 27.4612 22.4776C27.4612 22.4776 27.4612 22.4776 27.4612 22.4777C27.4611 22.4777 27.4611 22.4777 27.4611 22.4778C27.4611 22.4778 27.461 22.4779 27.461 22.478C27.4609 22.478 27.4608 22.4781 27.4608 22.4782C27.4608 22.4782 27.4608 22.4783 27.4607 22.4783C27.4607 22.4783 27.4607 22.4784 27.4606 22.4784C27.4606 22.4785 27.4606 22.4785 27.4606 22.4786C27.4605 22.4786 27.4605 22.4786 27.4605 22.4787C27.4601 22.4792 27.4575 22.4831 27.4562 22.4851C27.4527 22.4903 27.4535 22.4892 27.4491 22.4958C27.4473 22.4985 27.4419 22.5066 27.4391 22.5107C27.4313 22.5225 27.3938 22.5787 27.3707 22.6133C27.3673 22.6184 27.3685 22.6167 27.365 22.6219C27.3614 22.6274 27.3627 22.6254 27.359 22.6309C27.3579 22.6325 27.354 22.6384 27.3529 22.6401C27.3506 22.6435 27.3489 22.6461 27.3465 22.6496C27.3386 22.6615 27.3416 22.657 27.3334 22.6693C27.3325 22.6706 27.3308 22.6732 27.33 22.6745C27.3297 22.6749 27.3294 22.6753 27.3291 22.6757C27.3288 22.6762 27.3285 22.6766 27.3282 22.677C27.328 22.6775 27.3277 22.6779 27.3274 22.6783C27.3271 22.6788 27.3268 22.6792 27.3265 22.6796C27.3262 22.6801 27.3259 22.6805 27.3256 22.6809C27.3254 22.6814 27.3251 22.6818 27.3248 22.6822C27.3243 22.6829 27.3234 22.6842 27.323 22.6849C27.323 22.6849 27.3213 22.6875 27.3213 22.6875C27.3202 22.6891 27.3206 22.6886 27.3195 22.6902C27.285 22.742 27.2951 22.7267 27.2568 22.7842C27.2565 22.7847 27.2561 22.7852 27.2557 22.7858C27.2554 22.7863 27.255 22.7868 27.2547 22.7874C27.2545 22.7876 27.2527 22.7904 27.2525 22.7906C27.2522 22.7911 27.2518 22.7917 27.2514 22.7922C27.2511 22.7928 27.2507 22.7933 27.2504 22.7939C27.25 22.7944 27.2496 22.7949 27.2493 22.7955C27.2489 22.796 27.2485 22.7966 27.2482 22.7971C27.2478 22.7977 27.2475 22.7982 27.2471 22.7988C27.2467 22.7993 27.2464 22.7998 27.246 22.8004C27.2456 22.8009 27.2453 22.8015 27.2449 22.802C27.2445 22.8026 27.2442 22.8031 27.2438 22.8037C27.2433 22.8045 27.2399 22.8095 27.2394 22.8103C27.2356 22.8159 27.2252 22.8316 27.2212 22.8376C27.217 22.8439 27.1879 22.8875 27.1828 22.8953C27.1742 22.908 27.1096 23.0049 27.0973 23.0234L28.7614 24.1328C28.8057 24.0664 28.8918 23.9372 28.9209 23.8936C29.0026 23.7711 28.9684 23.8224 29.0349 23.7227C29.068 23.6729 29.0454 23.7069 29.0747 23.6629C29.0791 23.6563 29.0869 23.6445 29.0904 23.6394C29.094 23.634 29.1006 23.6241 29.1032 23.6201C29.1033 23.62 29.1045 23.6181 29.1046 23.618C29.1047 23.6179 29.1048 23.6177 29.105 23.6175C29.1051 23.6173 29.1052 23.6172 29.1053 23.617C29.1054 23.6168 29.1055 23.6167 29.1056 23.6165C29.1057 23.6163 29.1059 23.6162 29.106 23.616C29.1061 23.6158 29.1062 23.6157 29.1063 23.6155C29.1064 23.6153 29.1065 23.6152 29.1066 23.615C29.1067 23.6148 29.1068 23.6147 29.107 23.6145C29.1071 23.6143 29.1072 23.6142 29.1073 23.614C29.1074 23.6139 29.1085 23.6122 29.1085 23.6121C29.1087 23.612 29.1088 23.6118 29.1089 23.6117C29.109 23.6115 29.1091 23.6113 29.1092 23.6112C29.1093 23.611 29.1094 23.6109 29.1095 23.6107C29.1096 23.6106 29.1097 23.6104 29.1098 23.6103C29.1101 23.6098 29.1107 23.6089 29.111 23.6085C29.1115 23.6077 29.1127 23.6059 29.1132 23.6052C29.1195 23.5958 29.1111 23.6084 29.1171 23.5993C29.1174 23.5988 29.1202 23.5946 29.1203 23.5945C29.121 23.5935 29.1223 23.5914 29.1228 23.5908C29.123 23.5904 29.1228 23.5907 29.1231 23.5904C29.1231 23.5903 29.1233 23.59 29.1233 23.59C29.1234 23.5898 29.1237 23.5894 29.1238 23.5893C29.1239 23.589 29.1245 23.5883 29.1246 23.5881C29.1249 23.5876 29.1255 23.5866 29.1256 23.5865C29.1257 23.5863 29.1259 23.5861 29.1259 23.5861C29.1259 23.5861 29.1259 23.5861 29.1259 23.5861C29.1259 23.586 29.1259 23.586 29.1259 23.586C29.126 23.586 29.126 23.586 29.126 23.586C29.126 23.586 29.126 23.586 29.126 23.586C29.126 23.586 29.126 23.586 29.126 23.586C29.126 23.586 29.126 23.586 29.126 23.586C29.126 23.586 29.126 23.5859 28.2939 23.0312ZM27.1206 22.99C26.8624 23.345 26.5324 23.8327 26.1339 24.4459L27.8108 25.5359C28.2021 24.9338 28.5102 24.4797 28.7381 24.1663L27.1206 22.99ZM26.1339 24.4459C25.7317 25.0646 25.2704 25.8029 24.7504 26.6594L26.4599 27.6974C26.9729 26.8525 27.423 26.1324 27.8108 25.5359L26.1339 24.4459ZM24.7589 26.6456C24.2353 27.4771 23.6975 28.3685 23.1453 29.3195L24.8749 30.3237C25.4165 29.391 25.942 28.5203 26.4514 27.7112L24.7589 26.6456ZM23.1437 29.3222C21.637 31.9358 20.4152 34.3928 19.4831 36.692L21.3366 37.4434C22.2274 35.246 23.4057 32.8723 24.8764 30.321L23.1437 29.3222ZM19.4805 36.6985C18.5753 38.9771 18.0882 40.9935 18.0882 42.7188H20.0882C20.0882 41.345 20.4822 39.594 21.3392 37.4369L19.4805 36.6985ZM18.0882 42.7188C18.0882 43.747 18.4006 44.6753 19.1334 45.3623L20.5013 43.9033C20.2619 43.6788 20.0882 43.3312 20.0882 42.7188H18.0882ZM19.1334 45.3623C19.8747 46.0573 20.894 46.3164 22.0049 46.3164V44.3164C21.1713 44.3164 20.7323 44.1198 20.5013 43.9033L19.1334 45.3623ZM22.0049 46.3164C23.806 46.3164 25.551 45.8981 27.2302 45.075L26.3499 43.2792C24.9301 43.9751 23.485 44.3164 22.0049 44.3164V46.3164ZM27.2302 45.075C28.8679 44.2722 30.4163 43.2168 31.876 41.9158L30.5452 40.4228C29.2098 41.613 27.8112 42.5629 26.3499 43.2792L27.2302 45.075ZM31.868 41.9228C33.3427 40.6364 34.7346 39.1812 36.0445 37.5593L34.4887 36.3027C33.2465 37.8405 31.9345 39.2108 30.5532 40.4157L31.868 41.9228ZM36.0503 37.5521C37.3446 35.9188 38.5472 34.2538 39.658 32.5568L37.9846 31.4615C36.9078 33.1065 35.7407 34.7227 34.4829 36.3099L36.0503 37.5521ZM39.651 32.5673C40.7836 30.8837 41.8407 29.2293 42.8219 27.6041L41.1098 26.5704C40.1465 28.1657 39.1072 29.7925 37.9916 31.4509L39.651 32.5673ZM42.8261 27.597C43.7994 25.9546 44.6667 24.4786 45.428 23.1693L43.699 22.164C42.9411 23.4675 42.0767 24.9386 41.1055 26.5774L42.8261 27.597ZM44.0088 23.4987L44.6924 23.9544L45.8018 22.2903L45.1182 21.8346L44.0088 23.4987ZM44.3692 22.6435C44.1907 22.9707 43.9052 23.4817 43.5106 24.1798L45.2517 25.1639C45.6471 24.4644 45.9389 23.9425 46.125 23.6012L44.3692 22.6435ZM43.5203 24.1631C43.1182 24.8435 42.657 25.6584 42.1372 26.6064L43.8908 27.5681C44.4039 26.6324 44.8542 25.8371 45.2421 25.1806L43.5203 24.1631ZM42.1254 26.6286C41.6351 27.5786 41.115 28.6187 40.5653 29.7487L42.3638 30.6237C42.9078 29.5054 43.4207 28.4796 43.9026 27.5459L42.1254 26.6286ZM40.5603 29.7592C40.036 30.8695 39.5277 32.0246 39.0354 33.2246L40.8858 33.9837C41.3657 32.8139 41.8601 31.6904 42.3688 30.6132L40.5603 29.7592ZM39.0337 33.2288C37.5355 36.9285 36.7275 39.9036 36.7275 42.0807H38.7275C38.7275 40.3082 39.4083 37.6323 40.8875 33.9795L39.0337 33.2288ZM36.7275 42.0807C36.7275 43.4779 37.05 44.7121 37.8717 45.5978C38.7065 46.4976 39.8928 46.8633 41.2367 46.8633V44.8633C40.2411 44.8633 39.6728 44.5985 39.3379 44.2375C38.9899 43.8624 38.7275 43.2053 38.7275 42.0807H36.7275ZM41.2367 46.8633C42.7102 46.8633 44.1908 46.5027 45.67 45.8124L44.8242 44.0001C43.569 44.5858 42.376 44.8633 41.2367 44.8633V46.8633ZM45.6863 45.8046C47.1525 45.0878 48.5817 44.088 49.9757 42.8207L48.6304 41.3408C47.3509 42.504 46.076 43.3879 44.8079 44.0079L45.6863 45.8046ZM49.9766 42.8199C51.4023 41.521 52.7685 39.9637 54.0778 38.1555L52.458 36.9825C51.2152 38.6986 49.9382 40.1492 48.6296 41.3415L49.9766 42.8199ZM54.0778 38.1555C55.391 36.3422 56.6041 34.3029 57.7195 32.0413L55.9257 31.1567C54.8535 33.3308 53.6969 35.2716 52.458 36.9825L54.0778 38.1555ZM57.5459 30.9085C57.0074 30.3443 56.6986 29.7825 56.5645 29.2237L54.6197 29.6904C54.8502 30.6507 55.3617 31.5168 56.0992 32.2894L57.5459 30.9085ZM56.5741 29.2682C56.4275 28.5058 56.3643 27.9381 56.3643 27.543H54.3643C54.3643 28.12 54.4529 28.8284 54.6101 29.6459L56.5741 29.2682ZM56.3643 27.543C56.3643 26.8501 56.4335 26.211 56.5673 25.6227L54.617 25.1794C54.4469 25.9279 54.3643 26.7168 54.3643 27.543H56.3643ZM56.5569 25.6642C56.7187 25.071 56.9267 24.5875 57.1693 24.1993L55.4733 23.1393C55.1083 23.7233 54.8302 24.3943 54.6274 25.1379L56.5569 25.6642ZM57.1832 24.1763C57.4312 23.7548 57.6887 23.4796 57.9387 23.3066L56.8003 21.6622C56.2603 22.036 55.819 22.5508 55.4594 23.1622L57.1832 24.1763ZM57.9792 23.277C58.2167 23.0943 58.4312 23.0286 58.6455 23.0286V21.0286C57.9483 21.0286 57.3122 21.2668 56.7598 21.6918L57.9792 23.277ZM58.6455 23.0286C58.8204 23.0286 58.8936 23.0755 58.9653 23.1632L60.5132 21.8967C60.0381 21.316 59.3821 21.0286 58.6455 21.0286V23.0286ZM58.996 23.1989C59.0329 23.2399 59.1494 23.419 59.1494 23.9427H61.1494C61.1494 23.1903 60.9925 22.4276 60.4826 21.861L58.996 23.1989ZM59.1494 23.9427C59.1494 24.2966 59.0892 24.7791 58.9464 25.4073L60.8967 25.8505C61.0577 25.1419 61.1494 24.5003 61.1494 23.9427H59.1494ZM58.9464 25.4073C58.8033 26.0368 58.6164 26.6847 58.3846 27.3512L60.2736 28.0082C60.5279 27.2771 60.7359 26.5578 60.8967 25.8505L58.9464 25.4073ZM58.3893 27.3379C58.1508 27.9938 57.8973 28.6499 57.6288 29.3063L59.4799 30.0635C59.7583 29.3831 60.0213 28.7024 60.2689 28.0214L58.3893 27.3379ZM57.6288 29.3063C57.3591 29.9656 57.1227 30.5118 56.919 30.9482L58.7314 31.794C58.9531 31.3189 59.2028 30.741 59.4799 30.0635L57.6288 29.3063ZM57.2155 32.1637C57.72 32.5518 58.2856 32.8246 58.9043 32.9793L59.3893 31.039C59.0358 30.9506 58.7204 30.798 58.4349 30.5785L57.2155 32.1637ZM58.9043 32.9793C59.4721 33.1212 60.055 33.1914 60.6507 33.1914V31.1914C60.2135 31.1914 59.7937 31.1401 59.3893 31.039L58.9043 32.9793ZM60.6507 33.1914C61.7832 33.1914 62.9111 33.0247 64.0318 32.695L63.4675 30.7763C62.5223 31.0543 61.5842 31.1914 60.6507 31.1914V33.1914ZM64.0244 32.6972C65.1272 32.3821 66.145 32.0171 67.0754 31.6L66.2573 29.775C65.4255 30.1479 64.4989 30.4816 63.475 30.7742L64.0244 32.6972ZM67.0801 31.5979C68.1168 31.1267 69.1364 30.5932 70.1391 29.9979L69.118 28.2782C68.1763 28.8373 67.2211 29.3369 66.2525 29.7771L67.0801 31.5979ZM70.0758 30.0324C69.9586 30.091 69.8699 30.0924 69.8564 30.0924V28.0924C69.6607 28.0924 69.4201 28.1242 69.1814 28.2436L70.0758 30.0324ZM69.8564 30.0924C69.839 30.0924 69.6423 30.0874 69.457 29.9021C69.2716 29.7168 69.2666 29.52 69.2666 29.5026H71.2666C71.2666 29.2117 71.1932 28.8099 70.8712 28.4879C70.5491 28.1658 70.1473 28.0924 69.8564 28.0924V30.0924ZM69.2666 29.5026C69.2666 29.3887 69.2868 29.3004 69.2997 29.253C69.3137 29.2017 69.3292 29.1627 69.3389 29.14C69.3577 29.0961 69.3739 29.0696 69.3749 29.0679C69.3779 29.0629 69.3671 29.0808 69.3299 29.1305L70.9299 30.3305C70.9838 30.2586 71.0413 30.1778 71.0899 30.0969C71.1137 30.0571 71.147 29.9983 71.1772 29.9279C71.1967 29.8823 71.2666 29.7189 71.2666 29.5026H69.2666ZM69.3299 29.1305C69.3577 29.0934 69.3753 29.0793 69.365 29.0886C69.3569 29.0959 69.3366 29.1131 69.2993 29.1405C69.2235 29.1961 69.1077 29.2716 68.9424 29.368L69.9502 31.0955C70.1495 30.9793 70.3299 30.8649 70.482 30.7533C70.6195 30.6525 70.7947 30.5108 70.9299 30.3305L69.3299 29.1305ZM68.9094 29.3881C68.6193 29.5727 68.1547 29.8279 67.4952 30.1577L68.3896 31.9465C69.0669 31.6079 69.6049 31.3162 69.9832 31.0754L68.9094 29.3881ZM67.5286 30.1417C66.8984 30.4282 66.0332 30.7664 64.9221 31.1568L65.5851 33.0437C66.7223 32.6442 67.6496 32.2836 68.3562 31.9624L67.5286 30.1417ZM64.9276 31.1549C63.2235 31.7425 61.836 32.0117 60.7419 32.0117V34.0117C62.139 34.0117 63.7593 33.6733 65.5796 33.0456L64.9276 31.1549ZM60.7419 32.0117C59.4687 32.0117 58.6099 31.7472 58.0506 31.3384L56.8706 32.9532C57.8912 33.699 59.2199 34.0117 60.7419 34.0117V32.0117ZM56.5637 31.7035C55.4925 33.8758 54.3213 35.8311 53.0522 37.5725L54.6685 38.7504C56.0122 36.9067 57.2413 34.8516 58.3575 32.5881L56.5637 31.7035ZM53.0522 37.5725C51.7787 39.3198 50.4705 40.8019 49.1301 42.0258L50.4786 43.5028C51.9333 42.1746 53.3291 40.5882 54.6685 38.7504L53.0522 37.5725ZM49.1301 42.0258C47.7928 43.2468 46.4449 44.1747 45.0884 44.8247L45.9526 46.6284C47.5128 45.8808 49.0208 44.8339 50.4786 43.5028L49.1301 42.0258ZM45.0966 44.8209C43.7842 45.4351 42.5155 45.7292 41.2822 45.7292V47.7292C42.8441 47.7292 44.4009 47.3548 45.9444 46.6323L45.0966 44.8209ZM58.6455 21.849C57.9138 21.849 57.2675 22.1292 56.7535 22.6432L58.1677 24.0574C58.3222 23.9029 58.4658 23.849 58.6455 23.849V21.849ZM56.7207 22.6776C56.3322 23.1049 56.0185 23.6112 55.7697 24.1799L57.602 24.9815C57.7786 24.578 57.9814 24.264 58.2006 24.0229L56.7207 22.6776ZM55.7574 24.2093C55.5452 24.7397 55.3908 25.3114 55.2893 25.9202L57.2621 26.249C57.3429 25.7641 57.4619 25.3332 57.6144 24.9521L55.7574 24.2093ZM55.2826 25.9678C55.219 26.5082 55.1846 26.9901 55.1846 27.4062H57.1846C57.1846 27.0933 57.2109 26.6941 57.2689 26.2015L55.2826 25.9678ZM55.1846 27.4062C55.1846 28.9619 55.5581 30.3239 56.4009 31.3965L57.9735 30.1608C57.4794 29.532 57.1846 28.6458 57.1846 27.4062H55.1846ZM58.0951 31.1977C58.2837 30.7891 58.5011 30.2919 58.7468 29.7084L56.9036 28.9323C56.6632 29.5032 56.4552 29.9782 56.2792 30.3596L58.0951 31.1977ZM58.7468 29.7084C59.0005 29.1059 59.2373 28.4742 59.4575 27.8136L57.5601 27.1812C57.3549 27.7967 57.136 28.3802 56.9036 28.9323L58.7468 29.7084ZM59.4433 27.8534C59.6992 27.1816 59.909 26.5208 60.0714 25.8714L58.1311 25.3864C57.9896 25.9523 57.8045 26.5372 57.5743 27.1414L59.4433 27.8534ZM60.074 25.8605C60.2394 25.1659 60.3291 24.5093 60.3291 23.8971H58.3291C58.3291 24.318 58.2669 24.8158 58.1284 25.3973L60.074 25.8605ZM60.3291 23.8971C60.3291 23.4709 60.2654 22.9781 59.9958 22.5647C59.6779 22.0772 59.1742 21.849 58.6455 21.849V23.849C58.6307 23.849 58.569 23.8456 58.4895 23.8049C58.4063 23.7624 58.3504 23.703 58.3206 23.6573C58.2952 23.6183 58.2995 23.6064 58.3092 23.651C58.3188 23.6949 58.3291 23.7737 58.3291 23.8971H60.3291Z" fill="#622081" mask="url(#path-6-outside-3_102_57)"/>
</g>
</g>
<defs>
<filter id="filter0_d_102_57" x="48.2042" y="16.0913" width="40.4127" height="45.9148" filterUnits="userSpaceOnUse" color-interpolation-filters="sRGB">
<feFlood flood-opacity="0" result="BackgroundImageFix"/>
<feColorMatrix in="SourceAlpha" type="matrix" values="0 0 0 0 0 0 0 0 0 0 0 0 0 0 0 0 0 0 127 0" result="hardAlpha"/>
<feOffset dy="4"/>
<feGaussianBlur stdDeviation="2"/>
<feComposite in2="hardAlpha" operator="out"/>
<feColorMatrix type="matrix" values="0 0 0 0 0 0 0 0 0 0 0 0 0 0 0 0 0 0 0.25 0"/>
<feBlend mode="normal" in2="BackgroundImageFix" result="effect1_dropShadow_102_57"/>
<feBlend mode="normal" in="SourceGraphic" in2="effect1_dropShadow_102_57" result="shape"/>
</filter>
<filter id="filter1_d_102_57" x="60.089" y="31.5527" width="59.5862" height="56.6372" filterUnits="userSpaceOnUse" color-interpolation-filters="sRGB">
<feFlood flood-opacity="0" result="BackgroundImageFix"/>
<feColorMatrix in="SourceAlpha" type="matrix" values="0 0 0 0 0 0 0 0 0 0 0 0 0 0 0 0 0 0 127 0" result="hardAlpha"/>
<feOffset dy="4"/>
<feGaussianBlur stdDeviation="2"/>
<feComposite in2="hardAlpha" operator="out"/>
<feColorMatrix type="matrix" values="0 0 0 0 0 0 0 0 0 0 0 0 0 0 0 0 0 0 0.25 0"/>
<feBlend mode="normal" in2="BackgroundImageFix" result="effect1_dropShadow_102_57"/>
<feBlend mode="normal" in="SourceGraphic" in2="effect1_dropShadow_102_57" result="shape"/>
</filter>
<filter id="filter2_d_102_57" x="48" y="49" width="112" height="139.5" filterUnits="userSpaceOnUse" color-interpolation-filters="sRGB">
<feFlood flood-opacity="0" result="BackgroundImageFix"/>
<feColorMatrix in="SourceAlpha" type="matrix" values="0 0 0 0 0 0 0 0 0 0 0 0 0 0 0 0 0 0 127 0" result="hardAlpha"/>
<feOffset dy="4"/>
<feGaussianBlur stdDeviation="2"/>
<feComposite in2="hardAlpha" operator="out"/>
<feColorMatrix type="matrix" values="0 0 0 0 0 0 0 0 0 0 0 0 0 0 0 0 0 0 0.25 0"/>
<feBlend mode="normal" in2="BackgroundImageFix" result="effect1_dropShadow_102_57"/>
<feBlend mode="normal" in="SourceGraphic" in2="effect1_dropShadow_102_57" result="shape"/>
</filter>
<filter id="filter3_d_102_57" x="14.2224" y="22.0286" width="60.0443" height="32.7007" filterUnits="userSpaceOnUse" color-interpolation-filters="sRGB">
<feFlood flood-opacity="0" result="BackgroundImageFix"/>
<feColorMatrix in="SourceAlpha" type="matrix" values="0 0 0 0 0 0 0 0 0 0 0 0 0 0 0 0 0 0 127 0" result="hardAlpha"/>
<feOffset dy="4"/>
<feGaussianBlur stdDeviation="2"/>
<feComposite in2="hardAlpha" operator="out"/>
<feColorMatrix type="matrix" values="0 0 0 0 0 0 0 0 0 0 0 0 0 0 0 0 0 0 0.25 0"/>
<feBlend mode="normal" in2="BackgroundImageFix" result="effect1_dropShadow_102_57"/>
<feBlend mode="normal" in="SourceGraphic" in2="effect1_dropShadow_102_57" result="shape"/>
</filter>
<clipPath id="clip0_102_57">
<rect width="207" height="196" fill="white"/>
</clipPath>
</defs>
</svg>
