<svg width="25" height="26" viewBox="0 0 25 26" fill="none" xmlns="http://www.w3.org/2000/svg">
<g filter="url(#filter0_d_102_22)">
<path d="M20.64 1.64C20.64 2.28 19.88 3.69333 18.36 5.88C16.84 8.06667 15.4 9.94667 14.04 11.52V14.52C14.04 17.3467 14.24 19.4533 14.64 20.84C14.24 21 13.6533 21.08 12.88 21.08C12.16 21.08 11.68 20.9467 11.44 20.68C11.2 20.4133 11.08 19.96 11.08 19.32C11.08 19.24 11.08 18.5333 11.08 17.2C11.1067 15.84 11.12 14.7067 11.12 13.8V11.68C8 6.13333 5.62667 2.84 4 1.8C4.90667 0.733332 5.70667 0.199998 6.4 0.199998C7.06667 0.199998 7.65333 0.559999 8.16 1.28C9.81333 3.6 11.4533 6.28 13.08 9.32C14.1467 7.85333 15.2 6.12 16.24 4.12C17.28 2.12 17.8267 0.759999 17.88 0.0399981C19.72 0.146665 20.64 0.679999 20.64 1.64Z" fill="#97357B"/>
</g>
<defs>
<filter id="filter0_d_102_22" x="0" y="0.0400391" width="24.64" height="29.04" filterUnits="userSpaceOnUse" color-interpolation-filters="sRGB">
<feFlood flood-opacity="0" result="BackgroundImageFix"/>
<feColorMatrix in="SourceAlpha" type="matrix" values="0 0 0 0 0 0 0 0 0 0 0 0 0 0 0 0 0 0 127 0" result="hardAlpha"/>
<feOffset dy="4"/>
<feGaussianBlur stdDeviation="2"/>
<feComposite in2="hardAlpha" operator="out"/>
<feColorMatrix type="matrix" values="0 0 0 0 0 0 0 0 0 0 0 0 0 0 0 0 0 0 0.25 0"/>
<feBlend mode="normal" in2="BackgroundImageFix" result="effect1_dropShadow_102_22"/>
<feBlend mode="normal" in="SourceGraphic" in2="effect1_dropShadow_102_22" result="shape"/>
</filter>
</defs>
</svg>
